<svg width="26" height="26" viewBox="0 0 26 26" fill="none" xmlns="http://www.w3.org/2000/svg">
<g id="svg-replaced-0" clip-path="url(#clip0_505_42)">
<path id="Path_38" d="M20.69 5.86C20.69 6.67 20.04 7.32 19.23 7.32C18.42 7.32 17.77 6.67 17.77 5.86C17.77 5.05 18.42 4.4 19.23 4.4C20.04 4.4 20.69 5.05 20.69 5.86ZM18.87 12.4C18.87 15.78 16.13 18.53 12.74 18.53C9.35 18.53 6.61 15.79 6.61 12.4C6.61 9.02 9.35 6.27 12.74 6.27C16.12 6.27 18.86 9.02 18.87 12.4ZM16.67 12.4C16.67 10.23 14.91 8.47 12.74 8.47C10.57 8.47 8.81 10.23 8.81 12.4C8.81 14.57 10.57 16.33 12.74 16.33C14.91 16.33 16.66 14.57 16.66 12.4H16.67ZM25.15 7.47C25.15 3.34 21.8 0 17.67 0H7.48C3.35 0 0 3.35 0 7.47V17.67C0 21.8 3.35 25.14 7.48 25.14H17.68C21.81 25.14 25.16 21.79 25.16 17.67V7.47H25.15ZM22.7 17.56C22.7 20.4 20.4 22.69 17.57 22.69H7.59C4.75 22.69 2.46 20.39 2.46 17.56V7.59C2.46 4.75 4.76 2.46 7.59 2.46H17.57C20.41 2.46 22.7 4.76 22.7 7.59V17.56Z" fill="white"/>
</g>
<defs>
<clipPath id="clip0_505_42">
<rect width="25.15" height="25.15" fill="white"/>
</clipPath>
</defs>
</svg>
