<svg width="26" height="23" viewBox="0 0 26 23" fill="none" xmlns="http://www.w3.org/2000/svg">
<g id="svg-replaced-1" clip-path="url(#clip0_505_44)">
<path id="Path_39" d="M22.19 0.409954C18.61 0.289954 16.19 2.30995 14.92 6.46995C15.52 6.19995 16.17 6.05995 16.83 6.04995C18.14 6.04995 18.72 6.78995 18.57 8.25995C18.28 9.66995 17.68 11 16.83 12.16C15.75 13.87 14.94 14.72 14.4 14.72C13.7 14.72 13.07 13.4 12.49 10.77C12.29 9.99995 11.95 8.02995 11.45 4.84995C10.98 1.91995 9.75002 0.549954 7.74002 0.739954C6.89002 0.819954 5.61002 1.58995 3.92002 3.05995C2.68002 4.17995 1.43002 5.29995 0.150024 6.41995L1.36002 7.97995C1.97002 7.47995 2.65002 7.06995 3.38002 6.75995C4.27002 6.75995 5.10002 8.14995 5.87002 10.93L7.95002 18.57C8.99002 21.35 10.26 22.74 11.77 22.74C14.2 22.74 17.17 20.46 20.68 15.9C24.07 11.53 25.83 8.08995 25.94 5.57995C26.1 2.20995 24.85 0.489954 22.19 0.409954Z" fill="white"/>
</g>
<defs>
<clipPath id="clip0_505_44">
<rect width="25.81" height="22.33" fill="white" transform="translate(0.150024 0.409973)"/>
</clipPath>
</defs>
</svg>
