<svg width="169" height="49" viewBox="0 0 169 49" fill="none" xmlns="http://www.w3.org/2000/svg">
<g id="WPA Footer Logo" clip-path="url(#clip0_505_48)">
<path id="Vector" d="M68.3264 0.0443521H57.0126C56.9414 0.0443521 56.8921 0.0774602 56.8702 0.149194L56.2072 2.4171C56.1963 2.45573 56.1689 2.47228 56.136 2.47228H54.1143C54.076 2.47228 54.0486 2.49435 54.0322 2.53298L53.3911 4.74019C53.3583 4.84503 53.2651 4.91676 53.1555 4.91676H51.3256C51.2544 4.91676 51.1886 4.96642 51.1667 5.03816L50.5093 7.30055C50.4983 7.33365 50.4709 7.35573 50.438 7.35573H49.3094C49.2437 7.35573 49.1834 7.31158 49.1615 7.24537L47.096 0.154712C47.074 0.0884962 47.0138 0.0388341 46.9425 0.0388341H35.6616C35.6123 0.0388341 35.5849 0.0609062 35.574 0.10505L34.9165 2.36192C34.9001 2.42814 34.8398 2.46676 34.7741 2.46676H32.8017C32.7579 2.46676 32.7305 2.48883 32.714 2.53298L32.0456 4.83399C32.0292 4.88917 31.9908 4.91676 31.9305 4.91676H29.9527C29.8979 4.91676 29.865 4.94435 29.8486 4.99401L29.2021 7.21778C29.1802 7.30055 29.1035 7.35573 29.0213 7.35573H28.0406C27.9474 7.35573 27.8707 7.29503 27.8433 7.20674L25.7011 -0.00531006H14.2558L14.9297 2.40606C14.9407 2.43917 14.9133 2.47228 14.8804 2.47228H11.4781C11.4288 2.47228 11.3959 2.52194 11.4123 2.56609L12.0588 4.78985C12.0807 4.87814 12.0534 4.92228 11.9602 4.92228H8.63456C8.57977 4.92228 8.54142 4.97194 8.55786 5.02712L9.20984 7.26744C9.22628 7.3171 9.18792 7.36676 9.13861 7.36676H5.85679C5.73078 7.36676 5.68147 7.42746 5.71982 7.55437L6.34441 9.68985C6.36633 9.77262 6.33893 9.81676 6.25127 9.81676H2.90371C2.85987 9.81676 2.827 9.86091 2.83796 9.90505L3.51733 12.2337C3.52829 12.2723 3.49542 12.3164 3.45159 12.3164H0.0875868C0.0273196 12.3164 -0.0110322 12.3716 0.00540431 12.4268L10.6398 48.945C10.6508 48.9781 10.6782 49.0002 10.7165 49.0002H22.0906C22.1234 49.0002 22.1508 48.9781 22.1563 48.9505L22.8302 46.633C22.8466 46.5833 22.8905 46.5502 22.9398 46.5502H24.8957C24.956 46.5502 25.0053 46.5116 25.0217 46.4564L25.6628 44.2602C25.6902 44.1609 25.7778 44.1002 25.8764 44.1002H27.6954C27.7886 44.1002 27.8707 44.0395 27.8981 43.9457L28.5446 41.733C28.5611 41.6668 28.6213 41.6226 28.6871 41.6226H29.6952C29.7664 41.6226 29.8322 41.6723 29.8486 41.7385L31.936 48.9174C31.947 48.9616 31.9908 48.9947 32.0401 48.9947H43.3758C43.4142 48.9947 43.4471 48.9726 43.458 48.934L44.1209 46.6551C44.1429 46.5888 44.1977 46.5447 44.2689 46.5447H46.2139C46.2632 46.5447 46.307 46.5116 46.3234 46.4619L46.9699 44.2382C46.9919 44.1499 47.074 44.0947 47.1617 44.0947H49.0464C49.1122 44.0947 49.1724 44.0505 49.1943 43.9843L49.8244 41.8158C49.8573 41.6999 49.9614 41.6226 50.0819 41.6226H51.9447C51.994 41.6226 52.0269 41.6005 52.0433 41.5454L52.6844 39.3382C52.7118 39.2333 52.8104 39.1671 52.9145 39.1671H54.7718C54.8266 39.1671 54.8814 39.1285 54.8978 39.0733L55.5443 36.8551C55.5662 36.7723 55.6429 36.7116 55.7306 36.7116H57.6427C57.692 36.7116 57.7358 36.6785 57.7468 36.6343L68.3867 0.121604C68.3976 0.0829782 68.3703 0.0443521 68.3319 0.0443521H68.3264ZM54.202 4.8064L54.6403 3.29998C54.6513 3.26136 54.6896 3.23377 54.7334 3.23377H55.8621C55.9278 3.23377 55.9717 3.29998 55.9552 3.36068L55.5169 4.8671C55.506 4.90573 55.4676 4.93332 55.4238 4.93332H54.2951C54.2349 4.93332 54.1856 4.8671 54.2075 4.8064H54.202ZM34.9439 31.5909C34.9165 31.6902 34.8891 31.6902 34.8617 31.5909L34.2755 29.5933C34.2536 29.5271 34.2536 29.4499 34.2755 29.3781C34.4179 28.8539 34.5385 28.418 34.648 28.0704C34.9713 27.0219 35.2781 25.9625 35.5685 24.8975C35.5959 24.7982 35.6233 24.7982 35.6507 24.8975L36.2369 26.895C36.2588 26.9612 36.2588 27.0385 36.2369 27.1102C36.0945 27.6344 35.9739 28.0704 35.8643 28.418C35.5411 29.4664 35.2343 30.5259 34.9439 31.5909ZM35.2233 35.928H34.5439C34.5056 35.928 34.4837 35.8949 34.4946 35.8618L34.8288 34.6478C34.8453 34.5982 34.9165 34.5982 34.9329 34.6478L35.2781 35.8563C35.2891 35.8894 35.2617 35.9225 35.2288 35.928H35.2233ZM33.2893 35.9611C33.1742 35.9501 32.9989 35.9391 32.7579 35.9225C32.5442 35.9115 32.3963 35.7018 32.4565 35.4976C32.9222 33.8698 33.3112 32.5234 33.618 31.4474C33.6673 31.2708 33.7057 31.1439 33.7331 31.0666C33.7879 30.8901 33.8427 30.8901 33.892 31.0666C34.0673 31.7067 34.2371 32.3192 34.4125 32.8931C34.4618 33.0587 34.4508 33.2683 34.3741 33.5222C34.0399 34.6478 33.8372 35.3431 33.7769 35.6135C33.7166 35.8728 33.5523 35.9832 33.2948 35.9556L33.2893 35.9611ZM33.4208 36.8109L33.1852 37.6717C33.1688 37.7379 33.0756 37.7379 33.0592 37.6717L32.8072 36.8164C32.7962 36.7723 32.8291 36.7281 32.8729 36.7281H33.3605C33.4044 36.7226 33.4372 36.7668 33.4263 36.8109H33.4208ZM26.0682 35.928C25.986 35.928 25.9531 35.8894 25.9805 35.8066L26.9996 32.3358C27.038 32.2144 27.0873 32.2034 27.153 32.3027C27.1585 32.3137 27.1749 32.3634 27.1859 32.4517C27.2188 32.7 27.3722 33.2794 27.6461 34.1954C27.6845 34.3223 27.6845 34.4602 27.6461 34.5927L27.29 35.8121C27.2681 35.8949 27.2133 35.9335 27.1311 35.9335H26.0682V35.928ZM26.9886 36.8385L26.5449 38.3449C26.5339 38.378 26.501 38.4056 26.4627 38.4056H25.334C25.2792 38.4056 25.2354 38.356 25.2519 38.3008L25.6956 36.7888C25.7066 36.7557 25.7395 36.7281 25.7778 36.7281H26.9065C26.9613 36.7281 27.0051 36.7778 26.9886 36.833V36.8385ZM27.4872 30.7852C27.4708 30.7245 27.4324 30.6969 27.3722 30.6969H26.7311C26.6709 30.6969 26.6325 30.7245 26.6161 30.7852L25.3614 35.0893C25.3505 35.1224 25.334 35.1279 25.3121 35.1003C25.2902 35.0727 25.2683 35.0286 25.2573 34.9789C25.0546 34.245 24.1561 31.166 22.5672 25.7418C22.5508 25.6866 22.5508 25.6314 22.5672 25.5762L23.8274 21.2556C23.8657 21.1121 23.9095 21.1121 23.9534 21.2556L24.5122 23.1648C24.5396 23.2642 24.6327 23.3359 24.7368 23.3359H25.2683C25.334 23.3359 25.3779 23.3028 25.3943 23.2421L26.6709 18.8608C26.7257 18.6787 26.775 18.6787 26.8298 18.8608L27.3776 20.7424C27.3996 20.8087 27.4598 20.8583 27.531 20.8583H28.1392C28.194 20.8583 28.2433 20.8197 28.2597 20.77L29.5637 16.306C29.5911 16.2066 29.6185 16.2066 29.6514 16.306C29.7883 16.7419 29.9691 17.3654 30.1883 18.171C30.2157 18.2759 30.2595 18.3476 30.3198 18.3807C30.3691 18.4138 30.4293 18.4249 30.5006 18.4194C30.6759 18.4028 30.8567 18.4249 31.0156 18.4083C31.0759 18.4028 31.1142 18.3697 31.1252 18.3145C31.8265 15.8093 32.1881 14.5181 32.2154 14.4353C32.2648 14.2753 32.2922 14.1705 32.3031 14.1263C32.3634 13.8725 32.4291 13.867 32.5003 14.1153L35.1411 23.0986C35.1905 23.2642 35.1905 23.4352 35.1411 23.6008L33.9029 27.8607C33.8646 27.9931 33.8207 27.9931 33.7824 27.8607L33.2016 25.8632C33.1852 25.8135 33.1523 25.7859 33.0975 25.7859H32.462C32.4072 25.7859 32.3634 25.8245 32.3469 25.8742L31.0704 30.2555C31.0211 30.4266 30.9718 30.4266 30.917 30.2555L30.3636 28.3463C30.3417 28.2745 30.2814 28.2249 30.2047 28.2249H29.6294C29.5637 28.2249 29.5034 28.269 29.4815 28.3352L28.2159 32.6834C28.1611 32.8655 28.1118 32.8655 28.057 32.6834L27.5037 30.7907L27.4872 30.7852ZM10.322 8.24413C10.3056 8.18343 10.3494 8.12273 10.4152 8.12273H12.9683C13.0067 8.12825 13.045 8.15584 13.056 8.19998L13.4998 9.71192C13.5162 9.77262 13.4724 9.83332 13.4066 9.83332H10.8535C10.8151 9.8278 10.7768 9.79469 10.7658 9.75606L10.322 8.24413ZM10.5631 12.3164H8.01545C7.97162 12.3164 7.93327 12.2888 7.92231 12.2502L7.47305 10.7052C7.45661 10.6445 7.50044 10.5838 7.56071 10.5838H10.1084C10.1522 10.5838 10.1905 10.6114 10.2015 10.65L10.6508 12.195C10.6672 12.2557 10.6234 12.3164 10.5631 12.3164ZM24.4848 13.0117C24.6382 13.0282 24.7807 13.0338 24.9067 13.0338C25.1478 13.0338 25.3231 13.26 25.2519 13.4918L23.9315 18.0221C23.8986 18.1324 23.8657 18.1324 23.8328 18.0221L23.2959 16.1735C23.2521 16.019 23.2521 15.8535 23.2959 15.6935L23.9808 13.3483C24.052 13.0945 24.2218 12.9841 24.4848 13.0117ZM24.304 12.2612L24.556 11.3618C24.5725 11.3066 24.6492 11.3066 24.6656 11.3618L24.8903 12.2281C24.8957 12.2612 24.8738 12.2944 24.8409 12.2999L24.3643 12.3275C24.3259 12.3275 24.2985 12.2944 24.3095 12.2557L24.304 12.2612ZM27.5037 13.1331C27.1749 14.2201 26.9832 14.8989 26.9229 15.1637C26.8845 15.3293 26.8572 15.4341 26.8517 15.4727C26.7914 15.7155 26.7311 15.721 26.6654 15.4782L26.1066 13.4752C26.0463 13.249 26.2106 13.0282 26.4408 13.0282H27.4324C27.4817 13.0282 27.5201 13.0779 27.5037 13.1276V13.1331ZM28.331 13.1276C28.3474 13.0669 28.3967 13.0227 28.457 13.0172C28.6049 12.9896 28.7035 13.0724 28.7638 13.2655C28.8898 13.6904 29.0049 14.0822 29.109 14.4519C29.1583 14.6285 29.1528 14.8161 29.1035 14.9871C29.0049 15.3182 28.5994 16.6922 27.8927 19.1201C27.8598 19.225 27.8269 19.3133 27.7831 19.3795C27.7776 19.3905 27.7612 19.385 27.7612 19.3795C27.6132 18.6566 27.4379 18.011 27.2297 17.4371C27.1749 17.2882 27.1694 17.1281 27.2133 16.9791L28.3364 13.1331L28.331 13.1276ZM26.3147 17.1447C26.3147 17.1447 26.3147 17.1668 26.3147 17.1723L24.9998 21.7026C24.9834 21.7522 24.9122 21.7522 24.8957 21.7026L24.304 19.6278C24.304 19.6278 24.304 19.6057 24.304 19.6002L25.6189 15.0699C25.6354 15.0203 25.7066 15.0203 25.723 15.0699L26.3147 17.1392V17.1447ZM26.1011 10.6555L25.734 11.9467C25.7176 12.0019 25.6409 12.0019 25.6244 11.9467L25.2628 10.65C25.2519 10.6114 25.2792 10.5782 25.3176 10.5782H26.0518C26.0901 10.5782 26.1175 10.6169 26.1066 10.65L26.1011 10.6555ZM19.5374 18.1986C19.5648 18.2869 19.5648 18.3862 19.5374 18.4745L18.228 22.9717C18.228 22.9717 18.1951 22.9883 18.1896 22.9717L13.8888 8.2055C13.8778 8.16687 13.9107 8.12273 13.949 8.12273H16.5186C16.5679 8.12273 16.6117 8.15584 16.6227 8.19998L19.532 18.1931L19.5374 18.1986ZM16.7925 5.67825H19.3676C19.3676 5.67825 19.4114 5.6948 19.4169 5.71687L21.3235 12.2944C21.3235 12.2944 21.3235 12.3164 21.3235 12.3275L20.0524 16.7253C20.036 16.7805 19.9648 16.7805 19.9483 16.7253L16.7378 5.74446C16.7268 5.70584 16.7542 5.67273 16.7871 5.67273L16.7925 5.67825ZM18.6225 24.4174L19.9483 19.8706C19.9593 19.8209 20.0305 19.8209 20.0415 19.8706L20.6442 21.9619C20.6442 21.9619 20.6442 21.9785 20.6442 21.9895L19.3183 26.5364C19.3073 26.586 19.2361 26.586 19.2251 26.5364L18.6279 24.4395C18.6279 24.4395 18.6279 24.423 18.6279 24.4119L18.6225 24.4174ZM20.4031 18.32C20.4031 18.32 20.4031 18.298 20.4031 18.2924L21.6906 13.8615C21.7071 13.8118 21.7728 13.8118 21.7892 13.8615L22.3974 15.9694C22.3974 15.9694 22.3974 15.9914 22.3974 15.9969L21.1099 20.4279C21.0934 20.4776 21.0277 20.4776 21.0112 20.4279L20.4031 18.3255V18.32ZM21.4715 21.9619L22.759 17.5641C22.7754 17.5144 22.8466 17.5144 22.8631 17.5641L23.4658 19.6278C23.4658 19.6278 23.4658 19.6499 23.4658 19.6554L22.1782 24.0532C22.1618 24.1029 22.0906 24.1029 22.0741 24.0532L21.4715 21.9895C21.4715 21.9895 21.4715 21.9674 21.4715 21.9619ZM22.4905 13.0282H23.1644C23.2192 13.0282 23.2576 13.0779 23.2411 13.1331L22.9014 14.325C22.8795 14.4022 22.7699 14.4022 22.748 14.325L22.4138 13.1331C22.3974 13.0834 22.4357 13.0338 22.4905 13.0338V13.0282ZM24.178 9.86642L23.5096 12.2447C23.4986 12.2888 23.4548 12.3219 23.4055 12.3219L22.2495 12.2999C22.2001 12.2999 22.1618 12.2668 22.1508 12.2226L20.0415 5.00505C20.0305 4.96091 19.9867 4.9278 19.9374 4.9278H16.5843C16.5405 4.9278 16.4967 4.89469 16.4857 4.85055L16.0474 3.3662C16.0255 3.29998 16.0803 3.22825 16.146 3.22825H22.1892C22.2385 3.22825 22.2768 3.26136 22.2933 3.3055L24.1835 9.80573C24.1835 9.80573 24.1835 9.84435 24.1835 9.86642H24.178ZM16.3597 7.27296C16.3762 7.32262 16.3378 7.3778 16.283 7.3778H13.7134C13.6751 7.37228 13.6477 7.34469 13.6367 7.31158L13.1984 5.78861C13.182 5.73895 13.2203 5.68377 13.2751 5.68377H15.8447C15.8831 5.68928 15.9104 5.71687 15.9214 5.74998L16.3597 7.27296ZM11.0726 10.5838H13.7189C13.7189 10.5838 13.7573 10.5948 13.7627 10.6169L17.7842 24.4285C17.7842 24.4285 17.7842 24.445 17.7842 24.4561L16.4693 28.9808C16.4529 29.0305 16.3871 29.0305 16.3761 28.9808L11.0288 10.6445C11.0233 10.6114 11.0452 10.5838 11.0781 10.5838H11.0726ZM16.8473 30.5424L18.1458 26.0066C18.1622 25.9514 18.239 25.9514 18.2554 26.0066L22.0632 39.123C22.0632 39.123 22.0906 39.1616 22.118 39.1616L24.1013 39.1781C24.1397 39.1781 24.167 39.2168 24.1561 39.2499L23.7013 40.8115C23.7013 40.8115 23.674 40.8501 23.6466 40.8501H19.8771C19.8771 40.8501 19.8278 40.8391 19.8223 40.817L16.8473 30.57C16.8473 30.57 16.8473 30.548 16.8473 30.5369V30.5424ZM22.8028 38.4056C22.7316 38.4056 22.6713 38.3615 22.6549 38.2953L19.7073 28.1862C19.6908 28.1311 19.6908 28.0648 19.7073 28.0097C20.173 26.4481 20.5894 25.0079 20.9674 23.6835C20.9893 23.6063 21.0277 23.5401 21.0825 23.4904C21.0879 23.4849 21.0989 23.4904 21.1044 23.4904C21.7344 25.6921 22.9727 29.9851 24.83 36.375C24.8738 36.5295 24.8683 36.7116 24.819 36.9157C24.704 37.3517 24.5725 37.8262 24.4191 38.3284C24.4026 38.378 24.3643 38.4056 24.315 38.4056H22.8083H22.8028ZM29.5856 13.0834C29.5856 13.0834 29.6294 13.0614 29.6349 13.0834C29.6404 13.1 29.6349 13.111 29.6349 13.1276C29.613 13.1607 29.5966 13.1607 29.5801 13.1276C29.5747 13.1165 29.5801 13.1 29.5801 13.0779L29.5856 13.0834ZM31.7278 13.0227C31.7662 13.0227 31.7936 13.0614 31.7826 13.0945L30.7197 16.8081C30.7033 16.8633 30.6266 16.8633 30.6101 16.8081L30.0184 14.7002C30.0184 14.7002 30.0184 14.6781 30.0184 14.6671L30.4896 13.0724C30.4896 13.0724 30.517 13.0338 30.5444 13.0338L31.7333 13.0227H31.7278ZM30.7252 12.2392L31.2019 10.6114C31.2019 10.6114 31.2293 10.5727 31.2512 10.5727L32.451 10.5948C32.4839 10.5948 32.5113 10.6279 32.5003 10.661L32.0292 12.2778C32.0292 12.2778 32.0018 12.3164 31.9799 12.3164L30.7745 12.3054C30.7416 12.3054 30.7142 12.2723 30.7252 12.2392ZM45.8687 13.0117C45.9564 13.0227 46.0659 13.0338 46.1919 13.0448C46.5371 13.0779 46.6576 13.26 46.559 13.5911L45.2386 18.1159C45.2112 18.2152 45.1838 18.2152 45.1564 18.1159C45.1291 18.0276 45.0962 17.9062 45.0633 17.7627C44.9811 17.4261 44.8277 16.8853 44.6031 16.1404C44.5538 15.9859 44.5757 15.7707 44.6633 15.5058C44.8825 14.8326 45.0852 14.1429 45.266 13.4255C45.3482 13.111 45.5509 12.9731 45.8687 13.0117ZM45.6167 12.2447L45.8687 11.3508C45.8851 11.2956 45.9618 11.2956 45.9783 11.3508L46.2193 12.2447C46.2303 12.2833 46.2029 12.3164 46.1646 12.3164H45.6715C45.6331 12.3164 45.6057 12.2778 45.6167 12.2392V12.2447ZM48.8273 13.1331L48.1041 15.6217C48.0821 15.6879 48.0657 15.6879 48.0438 15.6217C47.6822 14.5016 47.485 13.7677 47.4521 13.4255C47.4302 13.1662 47.5397 13.0338 47.7918 13.0338C48.1315 13.0338 48.4547 13.0338 48.7506 13.0338C48.8218 13.0338 48.8492 13.0669 48.8273 13.1386V13.1331ZM49.6491 13.1386C49.671 13.0614 49.7367 13.0062 49.8189 12.9951C49.9285 12.9841 50.0052 13.0448 50.049 13.1828C50.1915 13.5966 50.312 14.0105 50.4161 14.4243C50.4709 14.6395 50.449 14.9044 50.3613 15.2079C49.8463 16.9295 49.4628 18.2648 49.2053 19.2029C49.1998 19.225 49.1834 19.2305 49.1615 19.2195C49.145 19.2139 49.1341 19.2084 49.1176 19.2195C49.0848 19.2305 49.0629 19.2195 49.0519 19.1864C48.8985 18.5959 48.7286 18.011 48.5424 17.4316C48.4492 17.1392 48.5698 16.8522 48.6519 16.5598C48.9916 15.3624 49.3258 14.2257 49.6491 13.1441V13.1386ZM47.6384 17.1557C47.6384 17.1557 47.6384 17.1778 47.6384 17.1833L46.318 21.7136C46.3015 21.7633 46.2303 21.7633 46.2139 21.7136L45.6167 19.6333C45.6167 19.6333 45.6167 19.6112 45.6167 19.6057L46.9371 15.081C46.9535 15.0313 47.0247 15.0313 47.0412 15.081L47.6384 17.1612V17.1557ZM47.4302 10.661L47.074 11.9302C47.0576 11.9964 46.9645 11.9964 46.948 11.9302L46.5809 10.6665C46.57 10.6224 46.6029 10.5838 46.6412 10.5838H47.3644C47.4082 10.5838 47.4411 10.6224 47.4302 10.6665V10.661ZM44.7894 19.6168C44.7894 19.6168 44.7894 19.6388 44.7894 19.6444L43.469 24.1526C43.4525 24.2022 43.3813 24.2022 43.3649 24.1526L42.7567 22.0999C42.7567 22.0999 42.7567 22.0778 42.7567 22.0723L44.0771 17.5641C44.0936 17.5144 44.1648 17.5144 44.1812 17.5641L44.7894 19.6168ZM44.5647 13.1L44.2031 14.4188C44.1867 14.474 44.11 14.474 44.0936 14.4188L43.721 13.111C43.71 13.0724 43.7374 13.0393 43.7758 13.0393H44.5045C44.5428 13.0338 44.5702 13.0669 44.5593 13.1055L44.5647 13.1ZM43.721 15.9694C43.721 15.9694 43.721 15.9859 43.721 15.9969L42.3896 20.5438C42.3787 20.5935 42.3075 20.5935 42.2965 20.5438L41.6883 18.3862C41.6883 18.3862 41.6883 18.3697 41.6883 18.3587L43.0197 13.8118C43.0307 13.7621 43.1019 13.7621 43.1128 13.8118L43.721 15.9694ZM41.9568 22.0171C41.9568 22.0171 41.9568 22.0392 41.9568 22.0447L40.609 26.6246C40.5926 26.6743 40.5268 26.6743 40.5104 26.6246L39.9351 24.6657C39.9351 24.6657 39.9351 24.6437 39.9351 24.6382L41.2829 20.0582C41.2994 20.0085 41.3651 20.0085 41.3815 20.0582L41.9568 22.0171ZM40.8336 18.5573L39.5297 23.0379C39.5133 23.0986 39.4968 23.0986 39.4804 23.0379L35.6781 9.97127C35.6616 9.91057 35.6068 9.87194 35.5466 9.87194H33.6893C33.6235 9.87194 33.5797 9.81124 33.5961 9.74503L34.0289 8.25516C34.0509 8.17791 34.1221 8.12273 34.2043 8.12273H37.8093C37.8696 8.12273 37.9189 8.16136 37.9353 8.22205L40.8391 18.1986C40.872 18.3145 40.872 18.4414 40.8391 18.5573H40.8336ZM34.8946 10.5838C34.9713 10.5838 35.037 10.6334 35.0644 10.7107C36.1273 14.3084 37.0861 17.5861 37.9463 20.5438C38.0121 20.77 38.0121 21.0073 37.9463 21.2446C37.4532 22.9607 37.0533 24.3623 36.7519 25.4438C36.73 25.5266 36.6862 25.5431 36.6259 25.4879C36.6204 25.4824 36.615 25.4714 36.6095 25.4659L32.8619 12.5978C32.8346 12.493 32.8346 12.3882 32.8619 12.2833L33.3277 10.6886C33.3441 10.6224 33.4044 10.5838 33.4701 10.5838H34.9001H34.8946ZM28.6104 34.1512C29.1035 32.4517 29.5253 30.9894 29.8705 29.7699C29.8924 29.6982 29.9143 29.6982 29.9363 29.7699L30.5115 31.7398C30.5444 31.8612 30.5444 31.9826 30.5115 32.104L29.5253 35.4866C29.3226 36.1874 29.1035 36.1929 28.8679 35.5031C28.7583 35.1665 28.5118 34.5099 28.6104 34.1567V34.1512ZM30.265 35.7956L30.8951 33.6436C30.9498 33.4504 31.0046 33.4504 31.0594 33.6436L31.6292 35.608C31.6785 35.7735 31.5525 35.9335 31.3881 35.9335H30.3691C30.2979 35.9335 30.2431 35.8618 30.265 35.7956ZM31.6073 38.3118L31.9525 37.153C31.9744 37.0758 32.0785 37.0813 32.1004 37.153L32.4182 38.3173C32.4291 38.367 32.3962 38.4167 32.3415 38.4167H31.6785C31.6292 38.4111 31.5909 38.3615 31.6018 38.3063L31.6073 38.3118ZM32.1004 33.9912C32.084 34.0409 32.0127 34.0409 31.9963 33.9912L31.3936 31.9385C31.3936 31.9385 31.3936 31.9164 31.3936 31.9109L32.714 27.3861C32.7305 27.3365 32.8017 27.3365 32.8181 27.3861L33.4153 29.4444C33.4153 29.4444 33.4153 29.4664 33.4153 29.4719L32.1004 33.9967V33.9912ZM35.311 33.0642L36.6314 28.5504C36.6478 28.5008 36.719 28.5008 36.73 28.5504L37.3382 30.6583C37.3382 30.6583 37.3382 30.6804 37.3382 30.6859L36.0178 35.1996C36.0013 35.2493 35.9301 35.2493 35.9191 35.1996L35.311 33.0862C35.311 33.0862 35.311 33.0642 35.311 33.0587V33.0642ZM37.0807 27.0661C37.0807 27.0661 37.0807 27.044 37.0807 27.0385L38.423 22.4916C38.4394 22.442 38.5106 22.442 38.5271 22.4916L39.1023 24.4616C39.1023 24.4616 39.1023 24.4837 39.1023 24.4892L37.76 29.036C37.7436 29.0857 37.6724 29.0857 37.6559 29.036L37.0807 27.0661ZM38.1709 30.7411L39.4913 26.128C39.5078 26.0784 39.5735 26.0784 39.59 26.128L43.3703 39.1395C43.3703 39.1395 43.3923 39.1781 43.4197 39.1781L45.403 39.1892C45.4359 39.1892 45.4578 39.2223 45.4523 39.2554L44.9921 40.8225C44.9921 40.8225 44.9647 40.8611 44.9428 40.8611L41.1788 40.8722C41.1788 40.8722 41.135 40.8556 41.1295 40.8335L38.1764 30.7687C38.1764 30.7687 38.1764 30.7466 38.1764 30.7411H38.1709ZM44.099 38.4056C44.0223 38.4056 43.9566 38.3559 43.9401 38.2842L41.0035 28.1918C41.0035 28.1918 40.998 28.1421 41.0035 28.12L42.3239 23.5842C42.3568 23.4794 42.3842 23.4794 42.417 23.5842L46.1919 36.546C46.2029 36.5847 46.2029 36.6288 46.1919 36.6674L45.7043 38.3394C45.6934 38.378 45.655 38.4056 45.6167 38.4056H44.1045H44.099ZM43.8963 25.9514C43.8525 25.8135 43.8525 25.659 43.8963 25.521L45.1674 21.1618C45.1893 21.0901 45.2112 21.0901 45.2332 21.1618L45.8358 23.2366C45.8523 23.2973 45.907 23.3359 45.9673 23.3359H46.5864C46.6522 23.3359 46.6905 23.3028 46.707 23.2421L48.0109 18.767C48.0493 18.629 48.0931 18.629 48.1315 18.767C48.3999 19.7492 48.5424 20.2955 48.5698 20.3948C48.6136 20.5603 48.6574 20.6873 48.7067 20.7811C48.7286 20.8307 48.7725 20.8528 48.8273 20.8528H49.4683C49.5176 20.8528 49.545 20.8307 49.5614 20.7811L50.8818 16.2453C50.9037 16.179 50.9202 16.179 50.9421 16.2453C51.0955 16.7308 51.2434 17.2385 51.4023 17.7737C51.4955 18.0883 51.4955 18.3862 51.4133 18.6732C49.8244 24.1029 48.241 29.5437 46.6741 35.001C46.6412 35.1058 46.6083 35.1058 46.5809 35.001L43.9018 25.9404L43.8963 25.9514ZM52.9967 13.0282C53.0295 13.0282 53.0514 13.0614 53.046 13.0945L52.0105 16.6922C51.994 16.7419 51.9283 16.7419 51.9173 16.6922L51.364 14.6837C51.364 14.6837 51.364 14.6671 51.364 14.6561L51.8023 13.0724C51.8023 13.0724 51.8242 13.0338 51.8516 13.0338L53.0021 13.0227L52.9967 13.0282ZM52.0488 12.2116L52.5145 10.65C52.52 10.6224 52.5529 10.6003 52.5803 10.6003L53.7363 10.5727C53.7856 10.5727 53.8185 10.6169 53.802 10.6665L53.3254 12.2557C53.3199 12.2888 53.287 12.3054 53.2596 12.3054H52.1146C52.0653 12.3054 52.0324 12.2557 52.0488 12.2116ZM46.57 38.2787L47.0028 36.7944C47.0138 36.7557 47.0521 36.7281 47.0905 36.7281H48.1972C48.2575 36.7392 48.3013 36.7944 48.2849 36.8551L47.852 38.3394C47.8411 38.378 47.8027 38.4056 47.7644 38.4056H46.6576C46.5974 38.3946 46.5536 38.3394 46.57 38.2787ZM47.337 35.9115C47.3041 35.9115 47.2822 35.8784 47.2877 35.8453L54.6403 10.5893C54.6403 10.5893 54.6677 10.5507 54.6896 10.5507L55.8511 10.5672C55.884 10.5672 55.9059 10.6003 55.9004 10.6334L48.5533 35.8728C48.5533 35.8728 48.5259 35.9115 48.504 35.9115H47.337ZM56.914 10.1092C56.9359 10.032 56.9469 9.96575 56.9469 9.91057C56.9469 9.8885 56.9305 9.87194 56.914 9.87194H54.9416C54.8978 9.87194 54.8649 9.8278 54.8759 9.78365L55.3197 8.26068C55.3416 8.18343 55.4128 8.12825 55.495 8.12825H58.6453C58.7111 8.12825 58.7549 8.19446 58.7385 8.25516L50.6846 35.9004C50.6846 35.9004 50.6682 35.928 50.6462 35.928H49.4464C49.4464 35.928 49.4025 35.9059 49.408 35.8784C52.2789 26.0508 54.7773 17.4592 56.9085 10.1147L56.914 10.1092ZM53.4788 7.30055L53.9445 5.72791C53.9445 5.72791 53.9719 5.68928 53.9993 5.68928L55.1882 5.70032C55.2265 5.70032 55.2539 5.73895 55.2375 5.77206L54.7718 7.34469C54.7718 7.34469 54.7444 7.38332 54.717 7.38332H53.5281C53.4897 7.3778 53.4624 7.33917 53.4788 7.30606V7.30055ZM53.2268 8.19446C53.2377 8.16136 53.2706 8.13377 53.3089 8.13377H54.4376C54.4924 8.13377 54.5362 8.18895 54.5198 8.24413L54.0541 9.81124C54.0431 9.84435 54.0102 9.87194 53.9719 9.87194H52.8432C52.7885 9.87194 52.7446 9.81676 52.7611 9.76158L53.2268 8.19446ZM51.3585 7.24537L51.7968 5.76102C51.8077 5.72239 51.8461 5.6948 51.8844 5.6948H53.0021C53.0679 5.68928 53.1117 5.74998 53.0953 5.81068L52.6624 7.29503C52.6515 7.33365 52.6131 7.36124 52.5748 7.36124H51.4516C51.3859 7.36676 51.342 7.30606 51.3585 7.24537ZM50.6243 9.75055L51.0791 8.19446C51.09 8.15584 51.1284 8.12825 51.1667 8.12825H52.2954C52.3611 8.12273 52.4049 8.18343 52.3885 8.24413L51.9338 9.80021C51.9228 9.83883 51.8844 9.86642 51.8461 9.86642H50.7175C50.6517 9.86642 50.6079 9.80573 50.6243 9.74503V9.75055ZM50.6079 10.5838C50.9804 10.5838 51.3147 10.5838 51.6215 10.5838C51.6763 10.5838 51.7201 10.6334 51.7091 10.6886C51.7091 10.6996 51.6982 10.7162 51.6817 10.7383C51.6708 10.7548 51.6598 10.7659 51.6598 10.7824C51.5064 11.279 51.3694 11.7481 51.2489 12.1895C51.2325 12.2447 51.1996 12.2833 51.1503 12.2999C51.0298 12.3495 50.8983 12.3551 50.7613 12.3164C50.7065 12.2999 50.6681 12.2668 50.6517 12.2171C50.4764 11.7977 50.3613 11.3839 50.3065 10.9755C50.2682 10.7162 50.3723 10.5838 50.6243 10.5838H50.6079ZM49.5231 8.12825H50.1805C50.2298 8.12825 50.2682 8.17791 50.2572 8.23309L49.923 9.36428C49.9011 9.44154 49.797 9.44154 49.7751 9.36428L49.4519 8.22757C49.4354 8.17791 49.4738 8.12825 49.5286 8.12825H49.5231ZM49.408 10.8873C49.3368 11.406 49.2217 11.8639 49.0629 12.2612C49.0519 12.2888 49.03 12.3054 48.9971 12.3054H47.7972C47.7644 12.3054 47.737 12.2723 47.7479 12.2392L48.1643 10.81C48.2082 10.6555 48.3123 10.5782 48.4766 10.5782H49.1396C49.3039 10.5782 49.4299 10.7217 49.408 10.8873ZM48.4657 9.80573L48.7122 8.89525C48.7286 8.84007 48.8053 8.84007 48.8218 8.89525L49.0793 9.80021C49.0902 9.83883 49.0629 9.87194 49.0245 9.87194H48.515C48.4766 9.87194 48.4492 9.83883 48.4602 9.80021L48.4657 9.80573ZM35.7274 2.40055L36.1986 0.800321C36.204 0.772731 36.2314 0.750658 36.2588 0.750658H46.4001C46.4275 0.750658 46.4549 0.767213 46.4604 0.794803L48.3725 7.38883C48.3725 7.38883 48.3725 7.41091 48.3725 7.42746L47.6658 9.81676C47.6603 9.84435 47.6329 9.86642 47.6 9.86642L46.3947 9.85539C46.3673 9.85539 46.3399 9.83332 46.3344 9.81124L44.2031 2.52194C44.1977 2.49435 44.1703 2.47228 44.1429 2.47228L35.7876 2.48332C35.7438 2.48332 35.7109 2.43917 35.7219 2.40055H35.7274ZM35.0261 4.79537L35.4589 3.31102C35.4699 3.26687 35.5137 3.23377 35.563 3.23377H43.5292C43.5785 3.23377 43.6169 3.26687 43.6333 3.31102L45.5126 9.81124C45.5126 9.81124 45.5126 9.84987 45.5126 9.87194L44.8332 12.2226C44.8222 12.2668 44.7784 12.2999 44.7346 12.2999L43.5785 12.3164C43.5292 12.3164 43.4909 12.2888 43.4744 12.2392L41.3596 4.99953C41.3487 4.95539 41.3048 4.92228 41.2555 4.92228H35.1247C35.0535 4.92228 35.0042 4.85606 35.0261 4.78985V4.79537ZM34.8015 5.68928L40.7022 5.67825C40.7022 5.67825 40.746 5.6948 40.7515 5.71687L42.6636 12.3219C42.6636 12.3219 42.6636 12.3385 42.6636 12.3495L41.3432 16.8964C41.3267 16.9405 41.261 16.9405 41.25 16.8964L38.4942 7.41642C38.4942 7.41642 38.4723 7.3778 38.4504 7.3778H34.3467C34.3138 7.3778 34.2919 7.35021 34.2974 7.3171L34.7576 5.72791C34.7576 5.72791 34.7795 5.68928 34.8015 5.68928ZM32.8729 4.86158L33.3277 3.28895C33.3277 3.28895 33.355 3.2448 33.3824 3.2448L34.5878 3.22825C34.6261 3.22825 34.6535 3.26687 34.6426 3.3055L34.1878 4.87262C34.1878 4.87262 34.1604 4.91676 34.133 4.91676L32.9277 4.93332C32.8893 4.93332 32.8619 4.89469 32.8729 4.85606V4.86158ZM32.1661 7.28951L32.6154 5.74446C32.6209 5.71136 32.6538 5.6948 32.6811 5.6948H33.8536C33.9029 5.6948 33.9358 5.73343 33.9194 5.78309L33.4701 7.32262C33.4646 7.35021 33.4317 7.37228 33.4044 7.37228L32.2319 7.38332C32.1826 7.38332 32.1497 7.33917 32.1661 7.28951ZM31.9853 8.1448L33.1085 8.12273C33.1742 8.12273 33.2236 8.18895 33.2071 8.24965L32.7579 9.79469C32.7469 9.83332 32.7085 9.86642 32.6647 9.86642L31.5416 9.87746C31.4758 9.87746 31.4265 9.81124 31.4429 9.75055L31.8922 8.21654C31.9032 8.17239 31.9415 8.1448 31.9853 8.1448ZM30.0239 7.28399L30.4732 5.73895C30.4787 5.71136 30.5115 5.68928 30.5389 5.68928H31.7114C31.7552 5.6948 31.7881 5.73895 31.7771 5.78309L31.3279 7.32262C31.3224 7.35021 31.2895 7.37228 31.2621 7.37228H30.0897C30.0458 7.37228 30.013 7.32262 30.0239 7.27847V7.28399ZM29.3007 9.77262L29.7664 8.19446C29.7719 8.16687 29.8048 8.1448 29.8322 8.1448L31.0101 8.12825C31.0539 8.12825 31.0923 8.17239 31.0759 8.21654L30.6047 9.80021C30.5992 9.8278 30.5663 9.84987 30.5389 9.84987H29.3665C29.3226 9.85539 29.2843 9.81124 29.3007 9.7671V9.77262ZM29.109 10.6279L30.1609 10.5617C30.2759 10.5562 30.3636 10.6665 30.3307 10.7769L29.9089 12.1895C29.8869 12.2612 29.8267 12.3109 29.7555 12.3109H29.4158C29.3336 12.3164 29.2678 12.2668 29.2514 12.184L28.9555 10.8321C28.9336 10.7328 29.0049 10.6334 29.109 10.6279ZM28.194 8.13377H28.846C28.8953 8.12825 28.9336 8.17791 28.9227 8.22757L28.6049 9.38084C28.583 9.45809 28.4789 9.45809 28.457 9.38084L28.1228 8.23309C28.1063 8.18343 28.1447 8.13377 28.194 8.13377ZM27.9803 10.6114C28.0625 10.6114 28.1173 10.6886 28.1008 10.7659L27.8105 12.2005C27.7995 12.2612 27.7447 12.3054 27.6845 12.3054L26.5832 12.3275C26.4955 12.3275 26.4298 12.2447 26.4572 12.1564L26.9065 10.6665C26.9229 10.6114 26.9777 10.5727 27.0325 10.5727L27.9748 10.6114H27.9803ZM27.1585 9.75055L27.3612 8.99458C27.3886 8.89525 27.531 8.89525 27.553 8.99458L27.7447 9.75606C27.7612 9.82228 27.7118 9.88298 27.6461 9.88298H27.2516C27.1859 9.88298 27.142 9.81676 27.1585 9.75606V9.75055ZM15.4174 0.750658H25.0437C25.0875 0.750658 25.1258 0.778248 25.1423 0.816875L27.038 7.38332C27.038 7.38332 27.038 7.42194 27.038 7.4385L26.3531 9.78917C26.3421 9.83332 26.3038 9.86091 26.2545 9.86091H25.1039C25.0601 9.86091 25.0217 9.83332 25.0053 9.79469L22.9014 2.54401C22.8905 2.49987 22.8521 2.47228 22.8028 2.47228H15.8611C15.8173 2.47228 15.779 2.45021 15.7625 2.40606L15.3133 0.877573C15.2968 0.811357 15.3406 0.750658 15.4119 0.750658H15.4174ZM12.5519 3.23928H15.1215C15.1598 3.23928 15.1927 3.26687 15.2037 3.29998L15.6529 4.82296C15.6694 4.87814 15.631 4.93332 15.5708 4.93332H13.0012C12.9628 4.93332 12.93 4.91124 12.919 4.87262L12.4697 3.34965C12.4533 3.29446 12.4917 3.23928 12.5519 3.23928ZM9.68102 5.68928H12.2725C12.2999 5.68928 12.3273 5.71136 12.3383 5.73895L12.7875 7.28399C12.7985 7.32814 12.7656 7.37228 12.7218 7.37228H10.1303C10.1029 7.37228 10.0755 7.35021 10.0645 7.32262L9.61527 5.77757C9.60431 5.73343 9.63719 5.68928 9.68102 5.68928ZM6.8649 8.11721L9.4016 8.13377C9.44543 8.13377 9.48378 8.16136 9.50022 8.2055L9.92209 9.69537C9.93852 9.76158 9.88921 9.8278 9.82347 9.8278L7.29225 9.81124C7.24842 9.81124 7.21007 9.78365 7.19363 9.73951L6.76628 8.24965C6.74984 8.18343 6.79915 8.11721 6.8649 8.11721ZM3.99399 10.5893L6.53617 10.5782C6.58 10.5782 6.61835 10.6058 6.62931 10.6445L7.07857 12.184C7.09501 12.2447 7.05118 12.3054 6.99091 12.3054L4.44874 12.3164C4.4049 12.3164 4.36655 12.2888 4.3556 12.2502L3.90633 10.7052C3.88989 10.6445 3.93373 10.5838 3.99399 10.5838V10.5893ZM22.0029 46.6275L21.5482 48.2056C21.5482 48.2056 21.5208 48.2442 21.4934 48.2442H11.3137C11.3137 48.2442 11.2644 48.2222 11.2589 48.1946L1.02995 13.1055C1.01899 13.0669 1.04638 13.0338 1.08473 13.0338H3.70909C3.70909 13.0338 3.7584 13.0448 3.76388 13.0724L13.5052 46.5171C13.5052 46.5171 13.5326 46.5557 13.56 46.5557H21.9481C21.9865 46.5557 22.0139 46.5944 22.0029 46.6275ZM22.7152 44.1995L22.2714 45.7115C22.2604 45.7446 22.233 45.7667 22.1947 45.7667H14.1791C14.1463 45.7667 14.1134 45.7391 14.1024 45.706L4.6131 13.1331C4.59666 13.0834 4.63502 13.0338 4.6898 13.0338H7.26485C7.29773 13.0282 7.3306 13.0503 7.34156 13.0834L16.3597 44.045C16.3707 44.0781 16.3981 44.1002 16.4364 44.1002H22.6439C22.6932 44.1002 22.7316 44.1499 22.7206 44.1995H22.7152ZM22.896 43.3167H17.0391C17.0007 43.3167 16.9679 43.2891 16.9569 43.256L8.1853 13.1441C8.16886 13.0889 8.20721 13.0338 8.26748 13.0338H10.8261C10.8644 13.0282 10.8973 13.0503 10.9083 13.0889L19.1977 41.5564C19.2087 41.595 19.2416 41.6171 19.2799 41.6171H23.3452C23.4 41.6226 23.4438 41.6778 23.4274 41.733L22.9727 43.2504C22.9617 43.2891 22.9288 43.3111 22.8905 43.3111L22.896 43.3167ZM24.8464 44.2106L24.4081 45.706C24.3972 45.7446 24.3643 45.7667 24.3259 45.7667H23.1918C23.137 45.7667 23.0932 45.717 23.1096 45.6563L23.5479 44.1609C23.5589 44.1223 23.5918 44.1002 23.6301 44.1002H24.7642C24.819 44.1002 24.8629 44.1499 24.8464 44.2106ZM25.5587 41.7385L25.1204 43.2504C25.1094 43.2835 25.082 43.3111 25.0437 43.3111H23.9095C23.8548 43.3167 23.8164 43.267 23.8328 43.2118L24.2711 41.6999C24.2821 41.6668 24.3095 41.6392 24.3478 41.6392H25.482C25.5368 41.6392 25.5751 41.6888 25.5587 41.7385ZM25.8381 40.7839C25.8217 40.8335 25.7778 40.8666 25.7285 40.8666H24.6601C24.5834 40.8666 24.5287 40.7894 24.5506 40.7177L24.9834 39.2609C24.9998 39.2112 25.0437 39.1781 25.093 39.1781H26.1613C26.238 39.1781 26.2928 39.2554 26.2709 39.3271L25.8381 40.7839ZM27.7009 41.7495L27.2571 43.256C27.2461 43.2946 27.2133 43.3167 27.1749 43.3167L26.0463 43.3056C25.9915 43.3056 25.9531 43.2504 25.9696 43.1953L26.4134 41.6888C26.4243 41.6502 26.4572 41.6281 26.4956 41.6281L27.6242 41.6392C27.679 41.6392 27.7173 41.6944 27.7064 41.7495H27.7009ZM28.4296 39.283L27.9803 40.8004C27.9694 40.8391 27.9365 40.8611 27.8981 40.8611H26.764C26.7092 40.8611 26.6709 40.806 26.6818 40.7508L27.1311 39.2333C27.1421 39.2002 27.1749 39.1726 27.2133 39.1726H28.3474C28.4022 39.1726 28.4405 39.2278 28.4296 39.2775V39.283ZM28.6104 38.3891L27.5913 38.4277C27.4763 38.4277 27.3886 38.3173 27.4215 38.2015L27.8324 36.844C27.8543 36.7668 27.9255 36.7171 28.0022 36.7226L28.2926 36.7337C28.3693 36.7337 28.4351 36.7888 28.4515 36.8661L28.7693 38.1739C28.7967 38.2842 28.72 38.3835 28.6104 38.3891ZM29.5253 40.8611H28.8624C28.8241 40.8667 28.8021 40.8335 28.8131 40.8004L29.1309 39.6416C29.1473 39.592 29.2185 39.5865 29.235 39.6416L29.5801 40.7949C29.5911 40.828 29.5637 40.8611 29.5308 40.8611H29.5253ZM29.739 38.3835C29.6459 38.3835 29.5801 38.2897 29.602 38.2015L29.9472 36.8385C29.9636 36.7723 30.0184 36.7281 30.0842 36.7281L31.1087 36.7171C31.2073 36.7171 31.2786 36.8109 31.2512 36.9047L30.8457 38.3118C30.8293 38.378 30.769 38.4222 30.7033 38.4167L29.739 38.3835ZM30.5773 39.2719L30.3198 40.1217C30.2979 40.1935 30.1938 40.1935 30.1773 40.1217L29.9636 39.2775C29.9527 39.2278 29.9856 39.1837 30.0349 39.1837H30.5006C30.5499 39.1837 30.5882 39.2278 30.5718 39.2775L30.5773 39.2719ZM43.2827 46.6771L42.8608 48.1725C42.8499 48.2167 42.8115 48.2442 42.7677 48.2442H32.6428C32.599 48.2442 32.5606 48.2167 32.5497 48.1725L30.643 41.6447C30.643 41.6447 30.643 41.6061 30.643 41.5895L31.3388 39.2499C31.3498 39.2112 31.3881 39.1837 31.432 39.1837H32.5935C32.6373 39.1781 32.6757 39.2057 32.6866 39.2444L34.796 46.4895C34.8069 46.5281 34.8453 46.5557 34.8891 46.5557H43.1895C43.2553 46.5557 43.2991 46.6164 43.2827 46.6771ZM44.0114 44.2051L43.5676 45.706C43.5566 45.7391 43.5238 45.7667 43.4854 45.7667H35.4754C35.437 45.7667 35.4096 45.7446 35.3932 45.706L33.5085 39.2057C33.5085 39.2057 33.5085 39.1726 33.5085 39.1616L34.2097 36.7944C34.2207 36.7612 34.2536 36.7337 34.2919 36.7337L35.4589 36.7226C35.4973 36.7226 35.5301 36.7447 35.5411 36.7833L37.645 44.0395C37.6559 44.0781 37.6888 44.1002 37.7272 44.1002H43.9237C43.9785 44.1002 44.0168 44.1554 44.0004 44.2106L44.0114 44.2051ZM44.2196 43.3167H38.3189C38.3189 43.3167 38.2805 43.3001 38.275 43.278L36.3958 36.8275C36.3958 36.8275 36.3958 36.8109 36.3958 36.7999L37.7107 32.253C37.7272 32.2034 37.7929 32.2034 37.8039 32.253L40.5104 41.584C40.5104 41.584 40.5323 41.6226 40.5542 41.6226H44.6907C44.7236 41.6226 44.7455 41.6557 44.7346 41.6888L44.2634 43.278C44.2634 43.278 44.2415 43.3111 44.2196 43.3111V43.3167ZM46.1481 44.2051L45.7098 45.7115C45.6989 45.7446 45.666 45.7722 45.6331 45.7722H44.4935C44.4387 45.7722 44.4004 45.717 44.4168 45.6673L44.8551 44.1664C44.8661 44.1333 44.8989 44.1057 44.9318 44.1057H46.0769C46.1317 44.1057 46.17 44.1554 46.1536 44.2106L46.1481 44.2051ZM46.8549 41.7495L46.4221 43.2615C46.4111 43.3001 46.3782 43.3222 46.3399 43.3222H45.2112C45.1564 43.3222 45.1126 43.2615 45.1291 43.2118L45.5619 41.6999C45.5728 41.6612 45.6057 41.6392 45.6441 41.6392H46.7727C46.8275 41.6392 46.8713 41.6999 46.8549 41.7495ZM47.1288 40.7839C47.1179 40.828 47.0795 40.8556 47.0302 40.8556H45.9509C45.8797 40.8611 45.8303 40.7949 45.8523 40.7287L46.2796 39.2554C46.2906 39.2112 46.3289 39.1837 46.3782 39.1837H47.4576C47.5288 39.1781 47.5781 39.2444 47.5562 39.3106L47.1288 40.7839ZM48.9862 41.7551L48.5533 43.2394C48.5424 43.278 48.504 43.3056 48.4657 43.3056H47.3644C47.3041 43.3056 47.2603 43.2504 47.2768 43.1897L47.7096 41.7054C47.7205 41.6668 47.7589 41.6392 47.7972 41.6392H48.8985C48.9588 41.6392 49.0026 41.6944 48.9862 41.7551ZM49.7148 39.2995L49.2765 40.7894C49.2656 40.828 49.2272 40.8556 49.1834 40.8556H48.0821C48.0164 40.8501 47.9726 40.7839 47.989 40.7232L48.4273 39.2333C48.4383 39.1892 48.4766 39.1616 48.5204 39.1616H49.6217C49.6874 39.1671 49.7313 39.2333 49.7148 39.294V39.2995ZM49.9833 38.356C49.9778 38.3835 49.9449 38.4056 49.9175 38.4056H48.767C48.7232 38.4056 48.6903 38.367 48.7012 38.3228L49.145 36.7833C49.1505 36.7557 49.1834 36.7337 49.2108 36.7337L50.3559 36.7502C50.3997 36.7502 50.4326 36.7944 50.4216 36.8385L49.9833 38.3615V38.356ZM51.8571 39.283L51.4242 40.7949C51.4133 40.8335 51.3804 40.8556 51.342 40.8556H50.2134C50.1586 40.8556 50.1203 40.8004 50.1367 40.7453L50.5641 39.2333C50.575 39.1947 50.6079 39.1726 50.6462 39.1726H51.7749C51.8297 39.1726 51.8735 39.2278 51.8571 39.283ZM52.5583 36.844L52.12 38.3449C52.1091 38.378 52.0762 38.4056 52.0433 38.4056H50.9202C50.8654 38.4056 50.827 38.3504 50.8435 38.3008L51.2873 36.7999C51.2982 36.7668 51.3311 36.7392 51.364 36.7392H52.4816C52.5364 36.7392 52.5748 36.7943 52.5583 36.844ZM52.8323 35.8839C52.8323 35.8839 52.7994 35.928 52.772 35.928H51.6269C51.5831 35.928 51.5557 35.8839 51.5667 35.8453L59.8342 7.45505C59.8452 7.41642 59.8178 7.37228 59.774 7.37228H55.6703C55.6265 7.3778 55.5991 7.33917 55.6101 7.30055L56.0593 5.73343C56.0593 5.73343 56.0922 5.68928 56.1196 5.68928H61.5382C61.582 5.68928 61.6094 5.73343 61.5984 5.77206L52.8268 35.8894L52.8323 35.8839ZM54.706 36.8385L54.2677 38.3504C54.2568 38.3835 54.2294 38.4111 54.191 38.4111L53.0569 38.4001C53.0021 38.4001 52.9638 38.3504 52.9802 38.3008L53.4185 36.7888C53.4295 36.7557 53.4569 36.7281 53.4952 36.7281L54.6239 36.7392C54.6787 36.7392 54.717 36.7888 54.7006 36.8385H54.706ZM54.9909 35.8177C54.969 35.8949 54.9142 35.9335 54.8321 35.9335H53.7911C53.7089 35.9335 53.6815 35.8949 53.7034 35.8177C56.6346 25.7914 59.5877 15.6493 62.5627 5.40787C62.6065 5.25336 62.6449 5.10437 62.6668 4.96642C62.6668 4.94987 62.6558 4.93332 62.6394 4.93332H56.3716C56.3333 4.93332 56.3059 4.89469 56.3168 4.86158L56.7442 3.39379C56.7716 3.29998 56.8592 3.23377 56.9578 3.23377H64.3926C64.4364 3.23377 64.4693 3.27791 64.4584 3.32205L54.9909 35.8177ZM67.3238 0.822393L57.1167 35.8894C57.1167 35.8894 57.0893 35.928 57.0619 35.928H55.8895C55.8511 35.928 55.8237 35.8894 55.8347 35.8508L65.5377 2.54401C65.5487 2.50539 65.5213 2.47228 65.4829 2.47228L57.0893 2.48332C57.051 2.48332 57.0236 2.44469 57.0345 2.41158L57.5057 0.794803C57.5057 0.794803 57.5331 0.756176 57.5605 0.756176H67.269C67.3074 0.756176 67.3347 0.789285 67.3238 0.827911V0.822393Z" fill="white"/>
<path id="Vector_2" d="M168.995 36.6727L157.193 0H143.617L142.871 2.31205C142.85 2.38378 142.784 2.42793 142.713 2.42793H140.713C140.625 2.42793 140.554 2.48311 140.527 2.5714L139.918 4.65169C139.88 4.78412 139.76 4.87241 139.623 4.87241H137.721C137.656 4.87241 137.617 4.90552 137.595 4.96622L136.883 7.17894C136.856 7.26171 136.779 7.32241 136.691 7.32241H134.714C134.642 7.32241 134.604 7.35 134.587 7.40518L133.941 9.62894C133.914 9.72275 133.831 9.78345 133.738 9.78345H131.777C131.711 9.78345 131.656 9.82207 131.64 9.88277L130.922 12.1176C130.9 12.1838 130.835 12.2334 130.763 12.2334H128.791C128.725 12.2334 128.67 12.2776 128.648 12.3383L116.842 48.9448C116.831 48.9779 116.853 49.011 116.891 49.011H128.818C128.862 49.011 128.9 48.9834 128.911 48.9393L129.563 46.7045C129.585 46.6162 129.668 46.5555 129.761 46.5555H131.793C131.848 46.5555 131.886 46.5279 131.903 46.4727L132.522 44.3538C132.555 44.2379 132.632 44.1828 132.752 44.1828H140.264C140.34 44.1828 140.406 44.2324 140.433 44.3097L141.913 48.9062C141.935 48.9724 141.989 49.011 142.055 49.011H154.092C154.092 49.011 154.136 48.9834 154.13 48.9614L153.396 46.6769C153.38 46.6217 153.418 46.5666 153.479 46.5666H157.062C157.095 46.5666 157.116 46.5334 157.105 46.5059L156.371 44.2214C156.355 44.1717 156.393 44.1166 156.448 44.1166H160.02C160.064 44.1166 160.091 44.0779 160.08 44.0338L159.374 41.8321C159.346 41.7493 159.407 41.6666 159.494 41.6666H163.001C163.056 41.6666 163.077 41.639 163.061 41.5838L162.332 39.3159C162.316 39.2662 162.354 39.211 162.409 39.211H165.998C166.036 39.211 166.058 39.1724 166.047 39.1393L165.296 36.7997C165.296 36.7997 165.302 36.7666 165.318 36.7666H168.962C169.006 36.7666 169.038 36.7224 169.022 36.6838L168.995 36.6727ZM142.91 4.76757L143.376 3.34944C143.387 3.31081 143.425 3.28322 143.463 3.28322H153.539C153.577 3.28874 153.615 3.31633 153.626 3.35495L164.064 35.8671C164.086 35.9278 164.036 35.9885 163.976 35.9885L161.324 35.9775C161.286 35.9775 161.247 35.9499 161.237 35.9113L151.26 4.94414C151.249 4.90552 151.21 4.87793 151.172 4.87793H143.003C142.937 4.87793 142.893 4.81723 142.915 4.75653L142.91 4.76757ZM132.204 38.4275C132.16 38.4275 132.133 38.3889 132.144 38.3447L132.626 36.8548C132.648 36.7941 132.703 36.7555 132.763 36.7555H137.836C137.88 36.7555 137.919 36.7776 137.941 36.8217C138.193 37.3515 138.22 37.8536 138.023 38.3392C138.001 38.3999 137.957 38.4275 137.891 38.4275H132.21H132.204ZM137.689 39.3159L137.217 40.8278C137.206 40.8664 137.174 40.8885 137.141 40.8885H135.913C135.859 40.8885 135.815 40.8389 135.831 40.7837L136.302 39.2662C136.313 39.2276 136.346 39.2055 136.379 39.2055H137.606C137.661 39.2055 137.705 39.2552 137.689 39.3104V39.3159ZM138.713 35.994C138.62 35.994 138.532 35.9333 138.505 35.8395L138.045 34.4104C138.028 34.3552 138.045 34.3276 138.105 34.3276H140.861C140.905 34.3276 140.943 34.3552 140.959 34.3938C141.146 34.9015 141.277 35.4202 140.981 35.9057C140.948 35.9609 140.899 35.9885 140.839 35.9885H138.724L138.713 35.994ZM140.691 36.8273L140.214 38.3061C140.198 38.3613 140.154 38.3999 140.094 38.4109C139.94 38.4385 139.77 38.4495 139.573 38.444C139.42 38.444 139.316 38.3889 139.272 38.2895C139.031 37.8039 139.036 37.3128 139.294 36.8107C139.31 36.7776 139.338 36.761 139.371 36.761H140.647C140.696 36.761 140.713 36.7831 140.696 36.8273H140.691ZM135.124 35.9223C135.809 33.8034 136.187 32.5894 136.253 32.2859C136.286 32.1369 136.313 32.0266 136.33 31.9548C136.335 31.9217 136.352 31.9162 136.379 31.9438C136.428 31.999 136.467 32.0652 136.494 32.1535C137.086 34.0407 137.475 35.2657 137.65 35.823C137.678 35.9057 137.612 35.994 137.524 35.994H135.168C135.135 35.994 135.113 35.9609 135.119 35.9278L135.124 35.9223ZM134.226 35.9554C134.226 35.9554 134.198 35.9885 134.177 35.9885H132.977C132.944 35.9885 132.922 35.9554 132.927 35.9223L135.283 28.5061C135.3 28.4564 135.365 28.4564 135.382 28.5061L135.985 30.5036C135.985 30.5036 135.985 30.5257 135.985 30.5312L134.226 35.9499V35.9554ZM137.541 32.5508C137.524 32.6005 137.458 32.6005 137.442 32.5508L136.828 30.5809C136.828 30.5809 136.828 30.5588 136.828 30.5477L138.264 26.0837C138.28 26.034 138.346 26.034 138.362 26.0837L138.976 28.0536C138.976 28.0536 138.976 28.0757 138.976 28.0867L137.541 32.5508ZM141.622 33.5882C141.568 33.5882 141.529 33.5606 141.513 33.5054L141.042 32.0486C141.02 31.9769 141.042 31.9438 141.118 31.9438C142.378 31.9438 143.2 31.9438 143.584 31.9438C143.786 31.9438 143.912 31.999 143.962 32.1038C144.192 32.5784 144.197 33.0474 143.978 33.5054C143.956 33.5551 143.907 33.5827 143.852 33.5827H141.617L141.622 33.5882ZM143.655 34.4821L143.217 35.834C143.178 35.9444 143.107 35.9995 142.992 35.9995H142.428C142.367 35.9995 142.318 35.9664 142.285 35.9168C142.022 35.4312 142.006 34.9511 142.23 34.4876C142.274 34.3993 142.362 34.3441 142.461 34.3441H143.551C143.649 34.3441 143.682 34.3938 143.655 34.4876V34.4821ZM147.276 31.1492H144.564C144.526 31.1492 144.493 31.1271 144.482 31.0885L144 29.5214C143.984 29.4662 144.022 29.411 144.082 29.411H146.8C146.838 29.411 146.871 29.4331 146.882 29.4717L147.364 31.0444C147.381 31.0995 147.342 31.1547 147.282 31.1547L147.276 31.1492ZM147.644 31.9493C147.709 31.9493 147.753 31.9824 147.775 32.0431L148.241 33.4999C148.263 33.5661 148.241 33.5937 148.175 33.5937H145.392C145.342 33.5937 145.304 33.5716 145.282 33.5275C144.997 33.0309 144.981 32.5232 145.227 32.0155C145.249 31.9714 145.293 31.9493 145.337 31.9493H147.644ZM144.028 35.8947L144.493 34.3993C144.504 34.3662 144.537 34.3441 144.57 34.3441H148.454C148.487 34.3441 148.52 34.3662 148.531 34.3993L149.002 35.8947C149.019 35.9444 148.98 35.9995 148.926 35.9995H144.104C144.049 35.9995 144.011 35.9499 144.028 35.8947ZM148.663 32.0376C148.646 31.9935 148.685 31.9438 148.728 31.9438H151.457C151.49 31.9438 151.517 31.9604 151.523 31.9935L151.999 33.4944C152.016 33.5385 151.977 33.5882 151.933 33.5882H149.21C149.178 33.5882 149.15 33.5661 149.145 33.5385L148.668 32.0376H148.663ZM151.155 31.1492H148.416C148.416 31.1492 148.367 31.1327 148.361 31.1051L147.852 29.4828C147.841 29.4441 147.868 29.4055 147.912 29.4055H150.651C150.651 29.4055 150.701 29.4221 150.706 29.4497L151.216 31.072C151.227 31.1106 151.199 31.1492 151.155 31.1492ZM150.312 28.6992H147.622C147.622 28.6992 147.578 28.6882 147.572 28.6606L147.057 27.0217C147.046 26.9886 147.074 26.95 147.107 26.95H149.802C149.802 26.95 149.846 26.961 149.852 26.9886L150.367 28.6275C150.377 28.6606 150.35 28.6992 150.317 28.6992H150.312ZM149.556 26.2492C149.15 26.2492 148.739 26.2492 148.328 26.2492C147.917 26.2492 147.507 26.2492 147.101 26.2492C147.063 26.2492 147.035 26.2106 147.046 26.172C147.474 24.8587 147.896 23.5399 148.306 22.21C148.312 22.1769 148.328 22.1659 148.339 22.1659C148.35 22.1659 148.361 22.1824 148.372 22.21C148.778 23.5399 149.194 24.8642 149.61 26.1775C149.621 26.2161 149.594 26.2547 149.556 26.2547V26.2492ZM147.912 20.7643L146.526 25.0739C146.509 25.118 146.444 25.118 146.427 25.0739L145.797 23.1481C145.797 23.1481 145.797 23.126 145.797 23.115L147.189 18.8054C147.205 18.7557 147.271 18.7557 147.287 18.8054L147.912 20.7312C147.912 20.7312 147.912 20.7533 147.912 20.7643ZM146.624 28.6385C146.635 28.6716 146.608 28.7047 146.575 28.7047H144.11C144.077 28.6992 144.055 28.6661 144.06 28.633L145.31 24.6986C145.326 24.6545 145.386 24.6545 145.403 24.6986L146.619 28.644L146.624 28.6385ZM144.921 23.2253L143.496 27.6508C143.48 27.7005 143.414 27.7005 143.397 27.6508L142.778 25.7416C142.778 25.7416 142.778 25.7195 142.778 25.7084L144.203 21.2775C144.219 21.2278 144.285 21.2278 144.301 21.2775L144.915 23.1922C144.915 23.1922 144.915 23.2143 144.915 23.2253H144.921ZM143.639 31.0554C143.649 31.0995 143.622 31.1437 143.573 31.1437C143.173 31.1492 142.773 31.1547 142.362 31.1547C141.951 31.1547 141.551 31.1492 141.157 31.1327C141.113 31.1327 141.08 31.0885 141.091 31.0444C141.518 29.7256 141.935 28.4068 142.34 27.0824C142.351 27.0493 142.362 27.0328 142.378 27.0328C142.395 27.0328 142.411 27.0493 142.417 27.0824C142.811 28.4123 143.217 29.7366 143.633 31.0554H143.639ZM141.957 25.6643L140.527 30.1063C140.51 30.156 140.439 30.156 140.422 30.1063L139.809 28.164C139.809 28.164 139.809 28.1419 139.809 28.1309L141.239 23.6889C141.255 23.6392 141.326 23.6392 141.343 23.6889L141.957 25.6312C141.957 25.6312 141.957 25.6533 141.957 25.6643ZM140.669 33.5164C140.68 33.5551 140.653 33.5882 140.614 33.5882H138.165C138.127 33.5827 138.099 33.544 138.11 33.5054L139.349 29.5931C139.365 29.5435 139.442 29.5435 139.458 29.5931L140.669 33.5109V33.5164ZM141.047 38.3337L141.524 36.8162C141.535 36.7831 141.562 36.761 141.595 36.761H149.221C149.254 36.7555 149.282 36.7776 149.293 36.8107L151.364 43.2502C151.38 43.2999 151.342 43.3495 151.292 43.3495H148.586C148.553 43.344 148.526 43.322 148.515 43.2888L146.948 38.4882C146.937 38.4551 146.909 38.4385 146.877 38.4385H141.124C141.074 38.433 141.036 38.3833 141.053 38.3337H141.047ZM149.446 34.4545C149.424 34.3938 149.468 34.3331 149.534 34.3331H152.202C152.24 34.3331 152.279 34.3607 152.29 34.3993L154.339 40.7726C154.361 40.8333 154.317 40.894 154.251 40.894H151.583C151.544 40.894 151.506 40.8664 151.495 40.8278L149.446 34.4545ZM152.432 32.0211C152.421 31.9824 152.448 31.9493 152.487 31.9493H155.226C155.226 31.9493 155.27 31.9548 155.281 31.9824L157.33 38.3613C157.341 38.3999 157.314 38.433 157.275 38.433H154.536C154.536 38.433 154.492 38.4275 154.481 38.3999L152.432 32.0211ZM154.925 31.1492H152.185C152.158 31.1492 152.136 31.1327 152.125 31.1051L150.821 27.0383C150.81 26.9997 150.838 26.9555 150.882 26.9555H153.621C153.648 26.9555 153.67 26.9721 153.681 26.9997L154.985 31.0664C154.996 31.1051 154.969 31.1492 154.925 31.1492ZM153.287 26.2492H150.608C150.608 26.2492 150.564 26.2327 150.553 26.2106L148.789 20.7367C148.789 20.7367 148.789 20.7146 148.789 20.7036L150.153 16.3609C150.169 16.3113 150.241 16.3113 150.257 16.3609L153.336 26.183C153.347 26.2216 153.32 26.2547 153.287 26.2547V26.2492ZM149.747 15.0973L148.389 19.3075C148.372 19.3627 148.35 19.3627 148.334 19.3075L145.31 9.89381C145.288 9.82759 145.244 9.79448 145.173 9.79448H141.337C141.337 9.79448 141.299 9.77241 141.305 9.75034L141.798 8.22736C141.809 8.19426 141.831 8.1777 141.869 8.1777H147.402C147.534 8.1777 147.655 8.26599 147.698 8.39291L149.753 14.7828C149.786 14.8876 149.786 14.998 149.753 15.1028L149.747 15.0973ZM144.614 10.6167C144.614 10.6167 144.658 10.6332 144.669 10.6553L146.794 17.3321C146.794 17.3321 146.794 17.3542 146.794 17.3652L145.436 21.6582C145.419 21.7079 145.348 21.7079 145.331 21.6582L142.313 12.2776C142.313 12.2776 142.285 12.239 142.258 12.239L140.587 12.2224C140.548 12.2224 140.521 12.1838 140.538 12.1507L141.036 10.6498C141.036 10.6498 141.063 10.6111 141.085 10.6111H144.619L144.614 10.6167ZM141.633 13.0667C141.633 13.0667 141.677 13.0832 141.683 13.1053L143.819 19.7931C143.819 19.7931 143.819 19.8152 143.819 19.8262L142.411 24.2351C142.395 24.2848 142.324 24.2848 142.307 24.2351L141.726 22.3259C141.726 22.3259 141.699 22.2873 141.677 22.2873L140.866 22.3038C140.866 22.3038 140.822 22.3204 140.817 22.3425L139.436 26.6851C139.42 26.7348 139.349 26.7348 139.332 26.6851L138.724 24.7428C138.724 24.7428 138.697 24.7042 138.675 24.7042L137.908 24.6876C137.908 24.6876 137.864 24.6986 137.853 24.7262L136.439 29.1131C136.423 29.1627 136.352 29.1627 136.335 29.1131L135.744 27.1045C135.744 27.1045 135.744 27.0824 135.744 27.0714L140.22 13.1218C140.22 13.1218 140.247 13.0832 140.269 13.0832L141.622 13.0667H141.633ZM140.143 10.7105L139.661 12.1617C139.65 12.1948 139.623 12.2169 139.584 12.2169L138.423 12.2334C138.368 12.2334 138.33 12.1838 138.346 12.1286L138.823 10.6939C138.834 10.6608 138.861 10.6443 138.894 10.6387L140.061 10.6001C140.116 10.6001 140.159 10.6498 140.138 10.705L140.143 10.7105ZM139.283 13.0667C139.321 13.0667 139.349 13.1053 139.338 13.1439L131.202 38.3944C131.202 38.3944 131.169 38.433 131.147 38.433H129.974C129.936 38.4275 129.909 38.3833 129.92 38.3502L138.056 13.0998C138.056 13.0998 138.088 13.0611 138.11 13.0611H139.283V13.0667ZM138.061 40.7837L138.543 39.2717C138.554 39.2331 138.587 39.211 138.625 39.211L146.235 39.1945C146.274 39.1945 146.307 39.2166 146.318 39.2552L147.874 44.0393C147.885 44.0779 147.917 44.1 147.956 44.1H151.577C151.616 44.1 151.649 44.1221 151.66 44.1552L152.142 45.6506C152.158 45.7057 152.12 45.7609 152.059 45.7609H145.594C145.556 45.7609 145.523 45.7333 145.512 45.7002L143.967 40.9492C143.956 40.9106 143.923 40.8885 143.885 40.8885H138.138C138.078 40.8885 138.039 40.8333 138.056 40.7782L138.061 40.7837ZM151.797 41.7769C151.775 41.7162 151.824 41.65 151.89 41.65H154.558C154.596 41.65 154.635 41.6721 154.646 41.7162L155.128 43.2226C155.15 43.2833 155.1 43.3495 155.034 43.3495H152.366C152.328 43.3495 152.29 43.3275 152.279 43.2888L151.797 41.7824V41.7769ZM154.777 39.3104C154.761 39.2552 154.799 39.2 154.859 39.2H157.555C157.593 39.2 157.62 39.2221 157.631 39.2607L158.119 40.7892C158.136 40.8444 158.097 40.8996 158.037 40.8996H155.341C155.303 40.8996 155.276 40.8775 155.265 40.8389L154.777 39.3104ZM157.757 36.8769C157.736 36.8162 157.779 36.7555 157.845 36.7555H160.508C160.546 36.7555 160.585 36.7776 160.596 36.8162L161.072 38.3116C161.094 38.3723 161.05 38.433 160.984 38.433H158.322C158.283 38.433 158.245 38.4109 158.234 38.3723L157.757 36.8769ZM142.674 5.7277L150.553 5.73874C150.591 5.73874 150.624 5.76081 150.635 5.79944L160.283 35.8726C160.3 35.9278 160.261 35.983 160.201 35.983L157.533 35.994C157.494 35.994 157.462 35.972 157.451 35.9333L148.268 7.38863C148.257 7.35552 148.224 7.32793 148.186 7.32793L142.192 7.33896C142.137 7.33896 142.094 7.28378 142.11 7.2286L142.587 5.7884C142.598 5.74977 142.63 5.7277 142.669 5.7277H142.674ZM140.729 4.75101L141.168 3.37151C141.179 3.33288 141.217 3.30529 141.261 3.30529L142.389 3.28874C142.455 3.28874 142.504 3.35495 142.482 3.41565L142.044 4.80619C142.033 4.84482 141.995 4.87241 141.951 4.87241H140.822C140.757 4.88345 140.707 4.81723 140.729 4.75101ZM139.924 7.23412L140.39 5.79944C140.401 5.76633 140.433 5.74426 140.466 5.74426H141.622C141.677 5.73874 141.721 5.79392 141.705 5.84358L141.239 7.27827C141.228 7.31137 141.195 7.33345 141.162 7.33345H140.006C139.951 7.33896 139.907 7.28378 139.924 7.2286V7.23412ZM139.672 8.18322H140.855C140.905 8.18322 140.937 8.22736 140.921 8.27151L140.455 9.73378C140.444 9.76137 140.417 9.78345 140.39 9.78345H139.206C139.157 9.78345 139.124 9.7393 139.14 9.69516L139.606 8.23288C139.617 8.20529 139.644 8.18322 139.672 8.18322ZM137.738 7.22309L138.209 5.78288C138.22 5.75529 138.247 5.73322 138.275 5.73322H139.447C139.497 5.73874 139.529 5.78288 139.513 5.83254L139.047 7.27275C139.036 7.30034 139.009 7.32241 138.982 7.32241H137.809C137.76 7.31689 137.727 7.27275 137.743 7.22309H137.738ZM136.949 9.69516L137.415 8.24944C137.426 8.22185 137.453 8.19977 137.48 8.19977L138.664 8.16667C138.713 8.16667 138.746 8.21081 138.735 8.26047L138.258 9.72826C138.247 9.75586 138.22 9.77793 138.193 9.77793L137.02 9.78896C136.971 9.78896 136.938 9.7393 136.954 9.69516H136.949ZM136.702 10.6167H137.858C137.913 10.6222 137.957 10.6774 137.935 10.7325L137.469 12.1672C137.458 12.2003 137.426 12.2224 137.393 12.2224H136.237C136.182 12.2224 136.138 12.1617 136.16 12.1121L136.62 10.6774C136.631 10.6443 136.664 10.6222 136.702 10.6222V10.6167ZM134.746 9.6786L135.218 8.2384C135.229 8.20529 135.261 8.18322 135.3 8.18322L136.461 8.16667C136.522 8.16667 136.56 8.22185 136.543 8.27703L136.067 9.72826C136.056 9.76689 136.023 9.78896 135.985 9.78896H134.829C134.774 9.78896 134.73 9.73378 134.746 9.6786ZM133.957 12.1286L134.429 10.6884C134.44 10.6608 134.467 10.6387 134.494 10.6387L135.689 10.6167C135.738 10.6167 135.776 10.6663 135.76 10.7105L135.267 12.1783C135.256 12.2059 135.229 12.2279 135.201 12.2279H134.023C133.974 12.2224 133.941 12.1727 133.957 12.1286ZM131.76 12.1396L132.243 10.6718C132.254 10.6443 132.281 10.6222 132.308 10.6222L133.497 10.6111C133.547 10.6111 133.579 10.6553 133.563 10.705L133.081 12.1727C133.07 12.2003 133.042 12.2224 133.015 12.2224L131.826 12.2334C131.777 12.2334 131.744 12.1893 131.76 12.1396ZM128.758 46.6383L128.287 48.1061C128.265 48.1668 128.21 48.2109 128.144 48.2109H118.107C118.003 48.2109 117.965 48.1613 118.009 48.0619C118.085 47.8743 118.151 47.6812 118.217 47.4881C121.548 37.1694 125.219 25.7581 129.235 13.2377C129.273 13.1163 129.355 13.0611 129.476 13.0611H130.462C130.555 13.0611 130.588 13.1053 130.561 13.1936L119.833 46.4672C119.822 46.5059 119.849 46.55 119.893 46.55H128.703C128.747 46.55 128.78 46.5941 128.764 46.6383H128.758ZM129.552 44.2104L129.059 45.7057C129.048 45.7444 129.01 45.772 128.972 45.772H121.093C121.033 45.772 120.984 45.7057 121.005 45.645L131.459 13.1384C131.47 13.0998 131.508 13.0722 131.547 13.0722H132.664C132.73 13.0722 132.774 13.1274 132.752 13.1881L122.813 44.0227C122.792 44.0834 122.841 44.1441 122.901 44.1441L129.459 44.089C129.525 44.089 129.569 44.1497 129.547 44.2104H129.552ZM131.706 44.2821L131.256 45.7002C131.245 45.7333 131.213 45.7609 131.174 45.7609H129.963C129.909 45.7609 129.865 45.7113 129.881 45.6506L130.33 44.2324C130.341 44.1993 130.374 44.1717 130.413 44.1717H131.623C131.678 44.1717 131.722 44.2269 131.706 44.2821ZM132.527 41.7383L132.034 43.2613C132.023 43.2999 131.996 43.3164 131.963 43.3164H123.986C123.948 43.3164 123.92 43.2778 123.937 43.2392C124.035 43.0019 124.106 42.8033 124.156 42.6377C127.312 32.8432 130.467 23.0377 133.612 13.2322C133.651 13.1218 133.722 13.0611 133.842 13.0611H134.812C134.927 13.0611 134.966 13.1163 134.933 13.2267L125.767 41.6555C125.767 41.6555 125.772 41.6886 125.794 41.6886H132.495C132.495 41.6886 132.538 41.7107 132.533 41.7383H132.527ZM134.681 41.8321L134.237 43.2502C134.226 43.2888 134.193 43.3109 134.155 43.3109H132.949C132.889 43.3109 132.851 43.2613 132.867 43.2006L133.305 41.8045C133.316 41.7714 133.349 41.7438 133.388 41.7438L134.598 41.7217C134.659 41.7217 134.703 41.7769 134.681 41.8321ZM134.955 40.8885H126.994C126.961 40.894 126.934 40.8609 126.945 40.8278L135.853 13.1108C135.853 13.1108 135.881 13.0777 135.902 13.0777L137.108 13.0611C137.141 13.0611 137.168 13.0943 137.157 13.1274L128.769 39.1283C128.758 39.1614 128.785 39.1945 128.818 39.1945H135.459C135.492 39.1945 135.519 39.2331 135.508 39.2662L135.009 40.8499C135.009 40.8499 134.982 40.8885 134.96 40.8885H134.955ZM152.881 48.2164H142.609C142.581 48.2164 142.554 48.1944 142.548 48.1668L140.987 43.3882C140.987 43.3882 140.954 43.344 140.927 43.344H135.141C135.097 43.344 135.064 43.2999 135.075 43.2613L135.541 41.7769C135.546 41.7493 135.574 41.7328 135.601 41.7328H143.288C143.315 41.7328 143.343 41.7548 143.348 41.7824L144.91 46.5114C144.91 46.5114 144.942 46.5555 144.97 46.5555H152.394C152.421 46.5555 152.448 46.5721 152.454 46.5997L152.947 48.1337C152.958 48.1778 152.931 48.2164 152.887 48.2164H152.881ZM155.812 45.7664H153.144C153.106 45.7664 153.068 45.7444 153.057 45.7002L152.58 44.2159C152.558 44.1552 152.607 44.0945 152.668 44.0945H155.336C155.374 44.0945 155.413 44.1166 155.423 44.1607L155.9 45.645C155.922 45.7057 155.873 45.7664 155.812 45.7664ZM158.804 43.344H156.13C156.092 43.344 156.054 43.322 156.043 43.2778L155.56 41.7659C155.539 41.7052 155.582 41.6445 155.648 41.6445H158.322C158.36 41.6445 158.398 41.6666 158.409 41.7107L158.892 43.2226C158.914 43.2833 158.87 43.344 158.804 43.344ZM161.795 40.894H159.111C159.072 40.894 159.045 40.872 159.034 40.8389L158.541 39.2993C158.525 39.2497 158.563 39.1945 158.618 39.1945H161.308C161.346 39.1945 161.374 39.2166 161.384 39.2497L161.878 40.7892C161.894 40.8389 161.856 40.894 161.801 40.894H161.795ZM164.765 38.4496H162.102C162.064 38.4496 162.025 38.422 162.015 38.3833L161.532 36.888C161.51 36.8273 161.554 36.761 161.62 36.761H164.283C164.321 36.761 164.359 36.7886 164.37 36.8273L164.853 38.3226C164.874 38.3833 164.831 38.4496 164.765 38.4496ZM167.767 35.9995H165.072C165.039 35.994 165.011 35.972 165 35.9389L154.235 2.49414C154.224 2.46104 154.196 2.43896 154.163 2.43896H143.765C143.715 2.43896 143.677 2.3893 143.693 2.33964L144.17 0.893919C144.181 0.860811 144.208 0.844257 144.241 0.844257H156.525C156.558 0.844257 156.585 0.866329 156.596 0.899437L167.844 35.9002C167.86 35.9499 167.822 35.9995 167.773 35.9995H167.767Z" fill="white"/>
<path id="Vector_3" d="M119.471 7.95699C118.37 4.98278 115.949 2.78661 112.984 1.60023C110.409 0.573883 107.665 0.0551893 104.739 0.0441533C102.356 0.0386353 96.411 0.0386353 86.9052 0.0386353C86.8285 0.0386353 86.7902 0.0772614 86.7902 0.154514V2.33965C86.7902 2.40586 86.7573 2.43897 86.6971 2.43897H83.8481C83.8152 2.43897 83.7878 2.46656 83.7878 2.49967V4.77861C83.7878 4.83931 83.7385 4.88897 83.6782 4.88897H80.8621C80.8237 4.88897 80.7909 4.92208 80.7909 4.96071V7.27827C80.7909 7.31138 80.7635 7.33897 80.7361 7.33897H77.8871C77.8542 7.33897 77.8268 7.36656 77.8268 7.39967V9.63447C77.8268 9.72276 77.7556 9.79449 77.6679 9.79449H74.9285C74.8628 9.79449 74.8299 9.8276 74.8299 9.89382V12.101C74.8299 12.1783 74.7696 12.239 74.6929 12.239H71.9042C71.8604 12.239 71.822 12.2776 71.822 12.3217V48.8289C71.822 48.9283 71.8987 49 71.9919 49H84.5713C84.6151 49 84.648 48.9669 84.648 48.9228V46.688C84.648 46.6107 84.7082 46.55 84.7849 46.55H87.5737C87.6284 46.55 87.6558 46.5224 87.6558 46.4672V44.238C87.6558 44.1607 87.7161 44.1 87.7928 44.1H90.4884C90.5541 44.1 90.6035 44.0503 90.6035 43.9841V41.7935C90.6035 41.7162 90.6692 41.65 90.7459 41.65H93.5182C93.5839 41.65 93.6113 41.6169 93.6113 41.5562V39.3655C93.6113 39.2717 93.6826 39.2 93.7757 39.2H96.537C96.5754 39.2 96.6137 39.1669 96.6137 39.1228V38.2123C96.6137 38.1405 96.6576 38.0798 96.7233 38.0578C98.6245 37.4122 100.268 36.3969 101.654 35.0008C101.983 34.6697 102.279 34.4214 102.547 34.2503C103.413 33.693 104.125 33.1136 104.695 32.5066C104.953 32.2307 105.259 31.9824 105.61 31.7562C106.388 31.2596 107.056 30.7133 107.626 30.1118C107.9 29.8194 108.212 29.5655 108.552 29.3448C109.341 28.8316 110.042 28.2688 110.645 27.6398C110.946 27.3307 111.259 27.0714 111.593 26.8617C112.354 26.3761 113.034 25.8243 113.636 25.1898C113.867 24.947 114.179 24.6987 114.573 24.4393C117.263 22.657 119 20.1463 119.795 16.9072C120.523 13.933 120.523 10.7767 119.477 7.95147L119.471 7.95699ZM81.6839 5.77737C81.6839 5.72771 81.7277 5.68357 81.7771 5.68357H83.6892C83.744 5.68357 83.7823 5.72771 83.7823 5.78289V7.25068C83.7823 7.30035 83.7385 7.34449 83.6837 7.34449H81.7716C81.7168 7.34449 81.6784 7.30035 81.6784 7.24517V5.77737H81.6839ZM81.7716 8.12805H83.6946C83.744 8.12805 83.7878 8.16668 83.7878 8.21634V9.70068C83.7878 9.75035 83.7494 9.79449 83.7001 9.79449H81.7771C81.7277 9.79449 81.6839 9.75586 81.6839 9.7062V8.22186C81.6839 8.17219 81.7223 8.12805 81.7716 8.12805ZM81.7825 10.5836H83.6837C83.7385 10.5836 83.7823 10.6277 83.7823 10.6829V12.1452C83.7823 12.2003 83.7385 12.2445 83.6837 12.2445H81.7825C81.7278 12.2445 81.6839 12.2003 81.6839 12.1452V10.6829C81.6839 10.6277 81.7278 10.5836 81.7825 10.5836ZM83.7823 13.0887V40.7837C83.7823 40.8389 83.733 40.8885 83.6782 40.8885H81.7825C81.7278 40.8885 81.6784 40.8389 81.6784 40.7837V13.0887C81.6784 13.0336 81.7278 12.9839 81.7825 12.9839H83.6782C83.733 12.9839 83.7823 13.0336 83.7823 13.0887ZM80.8731 41.65H83.7001C83.7494 41.65 83.7878 41.6886 83.7878 41.7383V43.2613C83.7878 43.3109 83.7549 43.3496 83.7056 43.3496H78.7856C78.7363 43.3496 78.698 43.3054 78.698 43.2613V13.0832C78.698 13.0336 78.7363 12.9949 78.7856 12.9949H80.7032C80.7525 12.9949 80.7909 13.0336 80.7909 13.0832V41.5672C80.7909 41.6169 80.8292 41.6555 80.8785 41.6555L80.8731 41.65ZM78.6925 8.22737C78.6925 8.17219 78.7363 8.12805 78.7911 8.12805H80.6977C80.7525 8.13357 80.7963 8.18323 80.7963 8.23289V9.69517C80.7909 9.75035 80.747 9.79449 80.6922 9.79449H78.7856C78.7308 9.78897 78.687 9.73931 78.687 9.68965V8.22737H78.6925ZM78.6925 10.6663C78.6925 10.6167 78.7308 10.578 78.7801 10.578H80.7142C80.7635 10.578 80.8018 10.6222 80.8018 10.6663V12.1562C80.8018 12.2059 80.758 12.2445 80.7142 12.2445H78.7801C78.7308 12.2445 78.6925 12.2003 78.6925 12.1562V10.6663ZM77.8926 44.1H83.7056C83.7494 44.1 83.7878 44.1331 83.7878 44.1773V45.7168C83.7878 45.7609 83.7549 45.7996 83.7111 45.7996H75.7558C75.712 45.7996 75.6736 45.7609 75.6736 45.7168V13.0722C75.6736 13.028 75.712 12.9894 75.7558 12.9894H77.7392C77.783 12.9894 77.8213 13.028 77.8213 13.0722V44.0172C77.8213 44.0614 77.8542 44.1 77.898 44.1H77.8926ZM75.7558 10.5836H77.7446C77.7885 10.578 77.8268 10.6167 77.8268 10.6608V12.1562C77.8323 12.2003 77.794 12.239 77.7501 12.239H75.7613C75.7175 12.2445 75.6791 12.2059 75.6791 12.1617V10.6663C75.6736 10.6222 75.712 10.5836 75.7558 10.5836ZM83.6946 48.2109H72.8027C72.7479 48.2109 72.7041 48.1723 72.7041 48.1171V13.0832C72.7041 13.0336 72.7479 12.9839 72.8027 12.9839H74.7258C74.7806 12.9894 74.8244 13.0336 74.8244 13.0887V46.4507C74.8244 46.5059 74.8683 46.55 74.923 46.55H83.6892C83.744 46.55 83.7878 46.5942 83.7878 46.6493V48.1171C83.7933 48.1668 83.7494 48.2164 83.7001 48.2164L83.6946 48.2109ZM84.637 5.78289C84.637 5.73323 84.6754 5.68909 84.7301 5.68909H86.708C86.7573 5.68909 86.8011 5.72771 86.8011 5.78289V7.25068C86.8011 7.30035 86.7628 7.34449 86.708 7.34449H84.7301C84.6808 7.34449 84.637 7.30586 84.637 7.25068V5.78289ZM84.7685 22.4363H86.6258C86.6916 22.4363 86.7464 22.4914 86.7464 22.5577V28.7875C86.7464 28.8537 86.6916 28.9089 86.6258 28.9089H84.7685C84.7028 28.9089 84.648 28.8537 84.648 28.7875V22.5577C84.648 22.4914 84.7028 22.4363 84.7685 22.4363ZM84.6425 21.5589V13.1108C84.6425 13.0446 84.6918 12.9949 84.7575 12.9949H86.6258C86.6916 12.9949 86.7409 13.0446 86.7409 13.1108V21.5589C86.7409 21.6251 86.6916 21.6748 86.6258 21.6748H84.7575C84.6918 21.6748 84.6425 21.6251 84.6425 21.5589ZM84.7521 29.6649H86.6368C86.6971 29.6649 86.7464 29.7145 86.7464 29.7752V38.3392C86.7464 38.3999 86.6971 38.4496 86.6368 38.4496H84.7521C84.6918 38.4496 84.6425 38.3999 84.6425 38.3392V29.7752C84.6425 29.7145 84.6918 29.6649 84.7521 29.6649ZM84.7521 39.2H86.6203C86.6861 39.1945 86.7354 39.2441 86.7354 39.3104V40.7726C86.7409 40.8389 86.6916 40.8885 86.6258 40.8885H84.7575C84.6918 40.894 84.6425 40.8444 84.6425 40.7782V39.3159C84.637 39.2497 84.6863 39.2 84.7521 39.2ZM86.7409 43.2282C86.7409 43.2944 86.6916 43.344 86.6258 43.344H84.7521C84.6863 43.344 84.637 43.2944 84.637 43.2337V41.7659C84.637 41.6997 84.6863 41.65 84.7466 41.65H86.6203C86.6861 41.65 86.7354 41.6997 86.7354 41.7604V43.2282H86.7409ZM86.6313 45.7996H84.7575C84.6918 45.7996 84.6425 45.7499 84.6425 45.6892V44.2214C84.6425 44.1552 84.6918 44.1055 84.7575 44.1055H86.6313C86.697 44.1055 86.7464 44.1552 86.7464 44.2159V45.6837C86.7464 45.7499 86.697 45.7996 86.6313 45.7996ZM86.7957 12.1396C86.7957 12.1948 86.7464 12.2445 86.6916 12.2445H84.7411C84.6863 12.2445 84.637 12.1948 84.637 12.1396V10.6884C84.637 10.6332 84.6863 10.5836 84.7411 10.5836H86.6916C86.7464 10.5836 86.7957 10.6332 86.7957 10.6884V12.1396ZM86.7025 9.78897H84.7411C84.6863 9.78897 84.6425 9.75035 84.6425 9.69517V8.22737C84.6425 8.17219 84.6808 8.12805 84.7356 8.12805H86.6971C86.7518 8.12805 86.7957 8.16667 86.7957 8.22186V9.68965C86.7957 9.74483 86.7573 9.78897 86.7025 9.78897ZM86.7957 4.76758C86.7957 4.83379 86.7409 4.88897 86.6751 4.88897H84.7575C84.6918 4.88897 84.637 4.83379 84.637 4.76758V3.34945C84.637 3.28323 84.6918 3.22805 84.7575 3.22805H86.6751C86.7409 3.22805 86.7957 3.28323 86.7957 3.34945V4.76758ZM87.6504 8.266C87.6504 8.19427 87.7106 8.13357 87.7819 8.13357C90.598 8.12253 93.1621 8.12253 95.4741 8.13357C98.0054 8.1446 100.449 8.51431 102.794 9.24269C102.914 9.28131 103.035 9.35305 103.161 9.45789C103.183 9.47444 103.183 9.48548 103.161 9.48548L98.8327 9.45789C98.7614 9.45789 98.7286 9.491 98.7286 9.56273V10.4015C98.7286 10.5339 98.6628 10.5836 98.5368 10.556C96.5699 10.0759 94.5099 9.8276 92.3512 9.80553C90.9103 9.78897 89.3762 9.78897 87.7545 9.79449C87.6997 9.79449 87.6558 9.75035 87.6558 9.69517V8.266H87.6504ZM105.194 22.8336C105.007 21.432 104.596 20.1297 103.955 18.9213C103.933 18.8771 103.939 18.8385 103.972 18.7999C104.355 18.4136 104.624 17.9887 104.777 17.5142C104.805 17.4204 104.881 17.3542 104.974 17.3321C105.38 17.2438 105.785 17.1059 106.18 16.9127C106.224 16.8907 106.273 16.9127 106.289 16.9514C107.665 19.6828 107.807 22.9715 107.155 25.9457C107.144 26.0009 107.106 26.034 107.051 26.0395L105.446 26.1775C105.363 26.183 105.292 26.1168 105.298 26.034C105.363 24.958 105.325 23.8875 105.188 22.828L105.194 22.8336ZM102.46 16.6699C102.388 16.6699 102.317 16.6423 102.262 16.5872C101.753 16.0795 101.178 15.5884 100.531 15.1139C100.339 14.9704 100.087 14.8324 99.7805 14.6945C99.6709 14.6448 99.5942 14.5345 99.5942 14.4131V12.7687C99.5942 12.719 99.6161 12.697 99.6654 12.6914C100.635 12.6252 101.462 12.6804 102.136 12.8515C102.569 12.9618 103.002 13.2653 103.375 13.5578C104.224 14.2255 104.35 15.3622 104.273 16.4437C104.262 16.5927 104.18 16.6699 104.032 16.6699H102.46ZM102.832 18.7061L102.114 18.9489C102.076 18.9599 102.038 18.9323 102.038 18.8937L102.016 17.6356C102.016 17.5804 102.082 17.5528 102.12 17.597L102.86 18.6123C102.882 18.6454 102.871 18.6895 102.832 18.7006V18.7061ZM98.8765 19.1144C98.8436 19.1144 98.8162 19.0979 98.7998 19.0703C98.619 18.7502 98.482 18.5295 98.3943 18.4026C97.967 17.8067 97.4082 17.3818 96.7178 17.1279C96.6466 17.1003 96.5973 17.0286 96.5973 16.9569V15.2518C96.5973 15.1801 96.6576 15.1194 96.7288 15.1194H98.5806C98.6519 15.1194 98.7066 15.1746 98.7066 15.2463V17.3928C98.7066 17.4314 98.734 17.459 98.7724 17.459H101.15C101.2 17.459 101.243 17.4976 101.249 17.5473C101.309 18.0329 101.315 18.5074 101.271 18.9765C101.265 19.0592 101.194 19.1199 101.112 19.1199H98.8601L98.8765 19.1144ZM100.991 20.047L100.367 20.8305C100.367 20.8305 100.345 20.8526 100.334 20.8581L99.1778 21.4154C99.1176 21.443 99.0463 21.3989 99.0463 21.3327L99.0135 19.9973C99.0135 19.9476 99.0518 19.9035 99.1066 19.9035H100.92C100.997 19.9035 101.041 19.9918 100.991 20.0525V20.047ZM95.8796 21.5589C95.8303 21.5589 95.7864 21.5313 95.7645 21.4817C95.4467 20.7864 95.0139 20.2677 94.466 19.9311C94.3729 19.8759 94.1099 19.738 93.6771 19.5283C93.6223 19.5062 93.5949 19.4621 93.5949 19.4014V17.6521C93.5949 17.5914 93.6223 17.5583 93.6826 17.5528C94.2798 17.5032 94.9372 17.5252 95.6549 17.608C95.7152 17.6135 95.7426 17.6466 95.7426 17.7073V19.8042C95.7426 19.8538 95.781 19.8925 95.8303 19.8925H98.0821C98.2245 19.8925 98.2957 19.9642 98.2957 20.1077V21.3382C98.2957 21.4816 98.2245 21.5534 98.0821 21.5534H95.8741L95.8796 21.5589ZM98.0218 22.4859L97.2657 23.3523C97.2657 23.3523 97.2493 23.3688 97.2383 23.3743L96.1754 23.8654C96.1206 23.8875 96.0604 23.8489 96.0549 23.7882L96.0275 22.4418C96.0275 22.3921 96.0658 22.359 96.1097 22.359H97.956C98.0273 22.3535 98.0656 22.4363 98.0163 22.4914L98.0218 22.4859ZM92.921 24.0034C92.8498 24.0034 92.7895 23.9648 92.7566 23.8985C92.3512 22.9715 91.6554 22.3369 90.6802 21.9893C90.6308 21.9728 90.6035 21.9341 90.6035 21.879V20.0911C90.6035 20.0359 90.6473 19.9863 90.7021 19.9863C91.3431 19.9642 91.9951 19.9863 92.6525 20.0414C92.7018 20.0414 92.7347 20.0856 92.7347 20.1353V22.2542C92.7347 22.3038 92.7731 22.348 92.8279 22.348H95.1125C95.244 22.348 95.3098 22.4142 95.3098 22.5466V23.7771C95.3098 23.9261 95.2331 23.9979 95.0851 23.9979H92.91L92.921 24.0034ZM95.0194 24.947L94.3017 25.7747C94.3017 25.7747 94.2797 25.7967 94.2688 25.8023L93.2278 26.2989C93.1621 26.332 93.0799 26.2823 93.0744 26.2051L93.0251 24.8808C93.0251 24.8201 93.0744 24.7704 93.1347 24.7704H94.9427C95.0358 24.7814 95.0851 24.8863 95.0249 24.958L95.0194 24.947ZM87.7599 26.4644C87.7051 26.4644 87.6558 26.4148 87.6558 26.3596V22.5356C87.6558 22.4749 87.6997 22.4308 87.7599 22.4308L89.6556 22.4749C89.7104 22.4749 89.7597 22.5246 89.7597 22.5797L89.7488 24.6655C89.7488 24.7207 89.7981 24.7704 89.8529 24.7704H92.2088C92.2635 24.7704 92.3129 24.8201 92.3129 24.8752L92.3457 26.3375C92.3457 26.3982 92.3019 26.4423 92.2416 26.4423L87.7599 26.4644ZM92.0225 27.3694C92.0225 27.3694 91.9896 27.4246 91.9567 27.4742C91.4527 28.1971 90.7843 28.6275 89.9515 28.771C89.3214 28.8813 88.5982 28.9255 87.7709 28.9034C87.7052 28.9034 87.6558 28.8482 87.6558 28.782V27.3694C87.6558 27.2866 87.7216 27.2149 87.8093 27.2149H91.9458C92.0225 27.2149 92.0663 27.2976 92.0334 27.3639L92.0225 27.3694ZM93.5894 20.4553C93.573 20.356 93.6113 20.3284 93.7045 20.3725C94.2304 20.6264 94.6414 20.9905 94.9372 21.4706C94.9591 21.5037 94.9482 21.5479 94.9153 21.5699C94.8879 21.5865 94.8605 21.5865 94.8276 21.5699C94.3291 21.5755 93.9455 21.5699 93.6716 21.5479C93.6113 21.5479 93.5894 21.5092 93.5949 21.4541C93.6387 21.1009 93.6387 20.7698 93.5949 20.4608L93.5894 20.4553ZM95.6549 14.3248H92.8279C92.7785 14.3248 92.7457 14.3634 92.7457 14.4076V16.6755C92.7457 16.7306 92.7018 16.7748 92.6471 16.7748H89.8309C89.7926 16.7748 89.7542 16.8079 89.7542 16.852V19.142C89.7542 19.1972 89.7268 19.2248 89.6721 19.2248H87.7599C87.6997 19.2248 87.6504 19.1751 87.6504 19.1144V13.1274C87.6504 13.0501 87.7161 12.9839 87.7928 12.9839C89.3981 12.9784 91.0198 13.0556 92.6635 13.2212C93.447 13.3039 94.4496 13.4916 95.6714 13.7951C95.7316 13.8116 95.7645 13.8502 95.7645 13.9109V14.2034C95.7645 14.2641 95.7152 14.3137 95.6549 14.3137V14.3248ZM95.759 16.7803C95.759 16.8079 95.7371 16.83 95.7042 16.83L93.6497 16.7527C93.6223 16.7527 93.6004 16.7306 93.6004 16.703V15.1525C93.6004 15.1249 93.6278 15.1028 93.6552 15.1028L95.6988 15.0918C95.7262 15.0918 95.7481 15.1139 95.7481 15.1414V16.7748L95.759 16.7803ZM92.7512 17.608L92.7347 19.1917C92.7347 19.2248 92.7073 19.2524 92.6744 19.2524L90.6582 19.2358C90.6254 19.2358 90.598 19.2082 90.598 19.1751L90.6144 17.5914C90.6144 17.5583 90.6418 17.5308 90.6747 17.5308L92.6909 17.5473C92.7238 17.5473 92.7512 17.5749 92.7512 17.608ZM90.6035 23.9206V22.9219C90.6035 22.8005 90.6582 22.7673 90.7623 22.828C91.3212 23.1315 91.7157 23.5012 91.9403 23.9261C91.9622 23.9648 91.9348 24.0089 91.891 24.0089H90.6966C90.6363 24.0089 90.6035 23.9813 90.6035 23.9206ZM96.7178 14.1427C96.9699 14.1703 97.0904 14.2144 97.0849 14.2751C97.0794 14.3358 96.9479 14.3469 96.6959 14.3082C96.6137 14.2972 96.5754 14.2586 96.5809 14.2089C96.5863 14.1537 96.6356 14.1317 96.7178 14.1427ZM96.6028 13.2322V12.7356C96.6028 12.708 96.6247 12.6804 96.6576 12.6804H98.6683C98.6957 12.6749 98.7231 12.697 98.7231 12.7246L98.734 14.0323C98.734 14.071 98.6957 14.0985 98.6628 14.082L96.6411 13.2819C96.6411 13.2819 96.6083 13.2543 96.6083 13.2322H96.6028ZM96.6083 18.9875V17.9667C96.6083 17.928 96.6466 17.906 96.674 17.9225C97.2274 18.1708 97.6437 18.5405 97.9232 19.0317C97.9451 19.0703 97.9232 19.1199 97.8739 19.1199H96.7397C96.6521 19.1199 96.6083 19.0758 96.6083 18.9875ZM99.5723 11.7589C99.5942 11.6761 99.6435 11.643 99.7202 11.6706C100.109 11.803 100.296 11.8913 100.285 11.9355C100.274 11.9741 100.071 11.9631 99.6654 11.9024C99.5833 11.8913 99.5559 11.8417 99.5778 11.7589H99.5723ZM99.5942 15.6546C99.5942 15.5387 99.7257 15.4725 99.8134 15.5498L100.865 16.4327C100.964 16.5154 100.904 16.6755 100.778 16.6755H99.7367C99.66 16.6755 99.5997 16.6203 99.5997 16.543L99.5887 15.6601L99.5942 15.6546ZM103.073 17.4535H103.895C103.972 17.4535 103.994 17.4866 103.966 17.5528C103.879 17.768 103.753 17.9556 103.583 18.1101C103.544 18.1488 103.506 18.1432 103.473 18.0991C103.254 17.7956 103.166 17.6521 103.062 17.5473C103.002 17.4811 103.008 17.4535 103.079 17.448L103.073 17.4535ZM104.985 15.2904C104.936 15.0532 104.985 15.0311 105.139 15.2187C105.396 15.5387 105.632 15.8588 105.84 16.1678C105.878 16.223 105.862 16.2561 105.802 16.2782L105.095 16.5099C105.04 16.5265 104.985 16.4823 104.996 16.4271C105.051 16.0188 105.046 15.6381 104.98 15.296L104.985 15.2904ZM106.47 15.6712C105.911 14.8159 105.177 14.0103 104.273 13.2433C103.018 12.1838 101.298 11.4058 99.6983 10.8871C99.6326 10.865 99.5997 10.8208 99.5997 10.7491V10.3408C99.5997 10.2746 99.649 10.2249 99.7147 10.2249C102.262 10.2249 103.572 10.2249 103.643 10.2249C104.164 10.2083 104.662 10.2746 105.133 10.4291C106.733 10.9588 107.451 12.1176 107.281 13.922C107.215 14.5896 106.991 15.1746 106.596 15.6822C106.563 15.7208 106.503 15.7208 106.476 15.6822L106.47 15.6712ZM87.6504 10.7105C87.6504 10.6443 87.6997 10.5946 87.7599 10.5946C89.8583 10.5615 91.6444 10.567 93.1128 10.6001C94.9482 10.6443 96.7343 10.8815 98.4656 11.3119C98.7176 11.3726 98.7998 11.5492 98.7066 11.8417C98.6902 11.8913 98.6573 11.9134 98.608 11.9134H95.8741C95.7919 11.9134 95.7536 11.952 95.7536 12.0348V12.9122C95.7536 12.9784 95.6878 13.0336 95.6221 13.017C93.0963 12.4155 90.4939 12.1617 87.8147 12.261C87.7161 12.261 87.6394 12.1893 87.6394 12.09V10.716L87.6504 10.7105ZM87.6613 20.0635C87.6613 20.0249 87.6942 19.9918 87.7325 19.9918H89.6994C89.7378 19.9918 89.7707 20.0249 89.7707 20.0635L89.7488 21.6362C89.7488 21.6748 89.7159 21.7079 89.6775 21.7024L87.7106 21.6582C87.6723 21.6582 87.6449 21.6251 87.6449 21.5865L87.6613 20.058V20.0635ZM89.7597 43.2392C89.7597 43.2999 89.7104 43.3496 89.6501 43.3496H87.7599C87.6997 43.3496 87.6504 43.2999 87.6504 43.2392V41.7659C87.6504 41.7052 87.6997 41.6555 87.7599 41.6555H89.6501C89.7104 41.6555 89.7597 41.7052 89.7597 41.7659V43.2392ZM89.7597 40.7837C89.7597 40.8444 89.7104 40.894 89.6501 40.894H87.7654C87.7052 40.894 87.6558 40.8389 87.6558 40.7782V39.3048C87.6558 39.2442 87.7052 39.1945 87.7709 39.1945H89.6556C89.7159 39.1945 89.7652 39.2497 89.7652 39.3104V40.7837H89.7597ZM89.6447 38.4275L87.7764 38.4385C87.7106 38.4385 87.6558 38.3889 87.6558 38.3171V36.91C87.6504 36.8438 87.6997 36.7886 87.7654 36.7886L89.6337 36.7776C89.6994 36.7776 89.7542 36.8273 89.7542 36.899V38.3061C89.7597 38.3723 89.7104 38.4275 89.6447 38.4275ZM90.7021 36.7831H92.6416C92.6964 36.7831 92.7402 36.8328 92.7402 36.888V38.1019C92.7402 38.1516 92.7018 38.1957 92.6471 38.2012L90.713 38.3999C90.6528 38.4054 90.6035 38.3613 90.6035 38.3006V36.888C90.598 36.8328 90.6418 36.7886 90.6966 36.7886L90.7021 36.7831ZM90.6035 35.8561V34.4766C90.6035 34.3993 90.6692 34.3331 90.7459 34.3331H92.6032C92.6799 34.3331 92.7457 34.3993 92.7457 34.4766V35.8561C92.7457 35.9333 92.6799 35.9996 92.6032 35.9996H90.7459C90.6692 35.9996 90.6035 35.9333 90.6035 35.8561ZM92.6361 40.894H90.713C90.6528 40.894 90.6035 40.8499 90.6035 40.7892V39.3048C90.6035 39.2442 90.6473 39.1945 90.7076 39.1945H92.6306C92.6909 39.1945 92.7402 39.2386 92.7402 39.2993V40.7837C92.7402 40.8444 92.6964 40.894 92.6361 40.894ZM95.759 37.4508C95.759 37.4949 95.7262 37.5391 95.6823 37.5501L93.7099 38.0357C93.6442 38.0523 93.5839 38.0026 93.5839 37.9364L93.6059 36.899C93.6059 36.8438 93.6497 36.7997 93.7045 36.7997H95.6604C95.7152 36.7997 95.7645 36.8438 95.759 36.899V37.4563V37.4508ZM95.759 35.6519C95.759 35.7071 95.7207 35.7512 95.6659 35.7568L93.7209 35.9444C93.6606 35.9499 93.6059 35.9002 93.6059 35.8395V34.4435C93.6059 34.3883 93.6497 34.3386 93.7045 34.3386L95.6604 34.311C95.7207 34.311 95.77 34.3607 95.77 34.4159L95.759 35.6519ZM93.6059 33.4778V31.9714C93.6059 31.9328 93.6387 31.8997 93.6771 31.8997H95.6823C95.7207 31.8997 95.7536 31.9328 95.7536 31.9714V33.4778C95.7536 33.5164 95.7207 33.5496 95.6823 33.5496H93.6771C93.6387 33.5496 93.6059 33.5164 93.6059 33.4778ZM97.4301 36.8548L96.7178 37.1914C96.663 37.219 96.6302 37.2025 96.6137 37.1418C96.5535 36.9266 96.6028 36.8052 96.7671 36.7942C96.9534 36.7776 97.1671 36.7776 97.4136 36.7886C97.5123 36.7886 97.5123 36.8162 97.4301 36.8548ZM98.7121 35.0339C98.7121 35.0725 98.6847 35.1056 98.6464 35.1112L96.7014 35.5912C96.6521 35.6023 96.5973 35.5636 96.5973 35.5084V34.3828C96.5973 34.3386 96.6357 34.3 96.6795 34.3L98.6299 34.1289C98.6793 34.1289 98.7231 34.1621 98.7176 34.2117L98.7066 35.0339H98.7121ZM98.6245 31.1106H96.7014C96.6521 31.1106 96.6083 31.072 96.6083 31.0168V29.549C96.6083 29.4938 96.6466 29.4552 96.7014 29.4552H98.6245C98.6738 29.4552 98.7176 29.4938 98.7176 29.549V31.0168C98.7176 31.072 98.6792 31.1106 98.6245 31.1106ZM98.7231 31.988L98.7121 33.213C98.7121 33.2681 98.6738 33.3123 98.619 33.3178L96.7233 33.4944C96.663 33.4999 96.6083 33.4502 96.6083 33.3895V32.0045C96.6083 31.9493 96.6576 31.8997 96.7178 31.8997L98.619 31.8776C98.6793 31.8776 98.7286 31.9273 98.7231 31.9824V31.988ZM98.7176 26.3099V28.5723C98.7176 28.633 98.6847 28.6661 98.6245 28.6661H95.8577C95.7974 28.6661 95.7481 28.7158 95.7481 28.7765V31.0278C95.7481 31.083 95.7207 31.1106 95.6659 31.1106H92.8607C92.795 31.1106 92.7347 31.1658 92.7347 31.2375V33.4447C92.7347 33.522 92.6964 33.5606 92.6197 33.5606H89.8474C89.7816 33.5606 89.7488 33.5937 89.7488 33.6599V35.9058C89.7488 35.972 89.7159 36.0051 89.6501 36.0051H87.7545C87.6942 36.0051 87.6449 35.9554 87.6449 35.8947V29.8194C87.6449 29.7421 87.7052 29.6814 87.7819 29.6869C89.0529 29.709 90.2145 29.709 91.3376 29.0855C92.0444 28.6937 92.5375 28.0978 92.8114 27.3032C92.8498 27.2038 92.932 27.1266 93.0361 27.11C94.4003 26.8672 95.3317 26.1057 95.8412 24.809C95.8631 24.7594 95.896 24.7262 95.9508 24.7042C96.033 24.6766 96.1535 24.6435 96.3014 24.6048C97.5506 24.2958 98.3834 23.5564 98.8107 22.3976C98.8436 22.3038 98.9258 22.2376 99.0244 22.2155C100.405 21.9783 101.336 21.2057 101.824 19.9035C101.846 19.8483 101.895 19.8042 101.956 19.7931C102.367 19.7324 102.761 19.5945 103.139 19.3903C103.183 19.3682 103.243 19.3848 103.265 19.4289C104.333 21.4375 104.651 23.8268 104.498 26.1278C104.498 26.1996 104.454 26.2382 104.383 26.2382H98.8053C98.7395 26.2382 98.7121 26.2713 98.7121 26.332L98.7176 26.3099ZM99.7421 26.9997H104.279C104.372 26.9997 104.438 27.0824 104.421 27.1707L104.18 28.4178C104.169 28.484 104.109 28.5337 104.043 28.5337L99.7531 28.6992C99.6709 28.6992 99.6052 28.6385 99.6052 28.5557V27.1431C99.6052 27.0604 99.6654 26.9997 99.7476 26.9997H99.7421ZM101.78 33.5827L101.408 33.9358L101.397 33.9413L99.6819 34.7525C99.649 34.769 99.6106 34.7414 99.6106 34.7083L99.5997 34.0462C99.5997 34.0462 99.6161 34.002 99.638 33.9965L101.736 33.4944C101.786 33.4833 101.819 33.544 101.786 33.5827H101.78ZM103.095 31.5134C103.002 31.7065 102.903 31.8941 102.799 32.0818C102.717 32.2252 102.558 32.3411 102.312 32.4294C101.473 32.7219 100.597 32.9536 99.6764 33.1302C99.638 33.1357 99.5997 33.1081 99.5997 33.0695V31.9217C99.5997 31.8666 99.6271 31.839 99.6819 31.8335C101.523 31.7231 102.597 31.5907 102.892 31.4417C102.892 31.4417 102.942 31.4362 103.024 31.4196C103.101 31.4086 103.123 31.4417 103.09 31.5134H103.095ZM103.533 30.476C103.533 30.476 103.501 30.5146 103.479 30.5202C102.251 30.8016 100.997 30.9782 99.7202 31.0499C99.6435 31.0499 99.6052 31.0168 99.6052 30.9395V29.5876C99.6052 29.4993 99.649 29.4497 99.7421 29.4552C101.15 29.4717 102.542 29.4276 103.922 29.3117C103.933 29.3117 103.939 29.3117 103.933 29.3283C103.846 29.7366 103.714 30.1229 103.533 30.4815V30.476ZM104.766 31.1271L104.509 31.4141C104.509 31.4141 104.498 31.4196 104.492 31.4251L104.032 31.6734C103.983 31.701 103.928 31.6458 103.955 31.5962L104.142 31.2265C104.142 31.2265 104.164 31.1989 104.175 31.1989L104.706 31.0389C104.761 31.0223 104.805 31.0885 104.766 31.1327V31.1271ZM106.065 29.1131L105.665 29.8194C105.665 29.8194 105.643 29.847 105.626 29.8525L104.64 30.2222C104.58 30.2443 104.525 30.1891 104.542 30.1284L104.821 29.2621C104.821 29.2621 104.848 29.2179 104.876 29.2124L105.983 28.9972C106.043 28.9862 106.092 29.0524 106.059 29.1076L106.065 29.1131ZM106.908 26.9942L106.563 27.9984C106.552 28.026 106.53 28.0481 106.503 28.0536L105.128 28.3516C105.073 28.3626 105.018 28.313 105.029 28.2578L105.226 27.0383C105.232 26.9997 105.265 26.9721 105.303 26.9721L106.826 26.8838C106.881 26.8838 106.925 26.939 106.908 26.9942ZM107.423 29.0248C107.215 29.1738 107.007 29.2345 106.958 29.1627C106.908 29.091 107.034 28.9144 107.248 28.7654C107.456 28.6164 107.665 28.5557 107.714 28.6275C107.763 28.6992 107.637 28.8758 107.423 29.0248ZM109.073 26.6576L108.634 27.3859C108.634 27.3859 108.618 27.408 108.607 27.408L107.599 27.7777C107.555 27.7943 107.511 27.7501 107.528 27.706L107.818 26.801C107.818 26.801 107.84 26.7679 107.862 26.7624L109.012 26.5693C109.062 26.5637 109.095 26.6134 109.073 26.6576ZM109.434 25.6146L108.13 25.9292C108.037 25.9512 108.004 25.9181 108.021 25.8243C108.634 22.7618 108.399 19.3131 106.947 16.4768C106.925 16.4271 106.93 16.3885 106.969 16.3499C107.599 15.7043 107.944 14.9097 107.999 13.9661C108.021 13.5412 108.021 13.1605 107.993 12.8128C107.977 12.6363 108.026 12.6197 108.136 12.7577C109.451 14.4351 110.218 16.3333 110.431 18.4633C110.678 20.9298 110.398 23.2695 109.588 25.4822C109.566 25.5484 109.505 25.5981 109.44 25.6202L109.434 25.6146ZM110.733 26.2492L110.546 26.481C110.546 26.481 110.535 26.492 110.53 26.4975L110.048 26.7734C109.993 26.8065 109.933 26.7458 109.96 26.6907L110.13 26.3485C110.13 26.3485 110.152 26.321 110.168 26.3154L110.667 26.1444C110.727 26.1223 110.777 26.194 110.738 26.2437L110.733 26.2492ZM111.533 25.0132L110.601 25.3167C110.557 25.3332 110.514 25.2891 110.53 25.2449C111.094 23.5012 111.357 21.7024 111.319 19.8538C111.275 17.7073 110.848 15.6215 109.796 13.7895C108.667 11.8306 107.056 10.3573 104.963 9.35305C103.577 8.69089 102.104 8.19978 100.537 7.88526C98.6573 7.51003 96.5809 7.32794 94.3126 7.33897C93.836 7.33897 91.6609 7.33897 87.7928 7.33897C87.7161 7.33897 87.6558 7.27827 87.6558 7.20102V5.76634C87.6558 5.72771 87.6887 5.68909 87.7325 5.68909C92.8662 5.67805 96.3672 5.67805 98.2409 5.68909C100.548 5.70012 102.723 5.97602 104.777 6.51679C106.826 7.05755 108.936 8.08391 110.431 9.57377C112.048 11.1905 113.028 13.1936 113.363 15.5884C113.806 18.7447 113.275 22.1107 111.67 24.9028C111.637 24.958 111.593 24.9911 111.538 25.0132H111.533ZM114.371 22.9163C114.02 23.4626 113.543 24.1634 113.023 24.3345C112.968 24.351 112.913 24.2903 112.941 24.2351C113.198 23.722 113.406 23.1922 113.576 22.646C114.327 20.1849 114.502 17.6908 114.102 15.1635C113.658 12.3438 112.36 10.0704 110.207 8.33773C107.801 6.40091 104.509 5.44077 101.413 5.09866C100.328 4.97726 99.1778 4.91104 97.956 4.89449C96.7781 4.87794 93.3812 4.87794 87.7599 4.89449C87.6997 4.89449 87.6504 4.84483 87.6504 4.78413V3.39359C87.6504 3.31082 87.7216 3.23909 87.8038 3.23909H101.002C103.61 3.23909 106.059 3.5812 108.366 4.2544C109.363 4.54686 110.338 4.97174 111.275 5.52906C114.097 7.18999 115.839 9.76138 116.332 13.0612C116.825 16.3499 116.222 20.0249 114.36 22.9274L114.371 22.9163ZM118.173 19.0096C117.603 20.2346 116.809 21.3492 115.79 22.348C115.636 22.497 115.609 22.4749 115.707 22.2873C117.05 19.6497 117.499 16.703 117.209 13.5633C116.951 10.7877 115.888 8.47568 114.014 6.62163C111.642 4.27647 108.01 3.06803 104.695 2.69832C103.38 2.54933 102.054 2.46656 100.712 2.45001C99.2052 2.43345 94.8934 2.42794 87.7709 2.44449C87.7052 2.44449 87.6504 2.38931 87.6504 2.32309V0.893928C87.6504 0.844266 87.6887 0.800122 87.7435 0.800122C93.5401 0.789086 99.0189 0.789086 104.169 0.800122C105.961 0.800122 107.752 0.987734 109.549 1.34089C114.645 2.34517 118.617 5.38008 119.351 10.7712C119.729 13.5302 119.351 16.4768 118.173 19.0096Z" fill="white"/>
</g>
<defs>
<clipPath id="clip0_505_48">
<rect width="169" height="49" fill="white"/>
</clipPath>
</defs>
</svg>
