<svg width="1031" height="243" viewBox="0 0 1031 243" fill="none" xmlns="http://www.w3.org/2000/svg">
<path d="M86.2613 212.591H74.1939L73.4812 239.234H0L37.9759 3.349H122.463L160.804 239.25H87.3223L86.2613 212.607V212.591ZM84.836 173.158L80.9244 83.2769H78.8023L75.6033 173.158H84.836Z" fill="white"/>
<path d="M402.547 152.919L417.449 239.25H297.472L293.925 172.809H286.83V239.25H166.14V3.349H286.83C403.624 3.349 419.952 14.3642 419.952 90.0286V91.8038C419.952 120.935 416.753 140.112 402.563 152.903L402.547 152.919ZM290.726 108.509C296.411 108.509 297.108 107.447 297.108 98.9201V97.145C297.108 87.9048 296.395 86.8429 290.013 86.8429H287.179V108.509H290.726Z" fill="white"/>
<path d="M424.212 196.964V45.2702C424.212 10.4494 435.218 0.147339 472.481 0.147339C509.744 0.147339 520.402 10.1007 521.463 43.8438V115.958H477.454V40.2935C477.454 36.7433 476.028 35.3169 472.481 35.3169C469.282 35.3169 467.508 36.7433 467.508 40.2935V202.289C467.508 205.49 469.282 207.266 472.481 207.266C476.028 207.266 477.454 205.49 477.454 202.289V126.624H521.463V198.739C520.402 232.482 509.032 242.435 472.481 242.435C435.931 242.435 424.212 232.133 424.212 196.964Z" fill="white"/>
<path d="M529.651 3.349H583.954V103.532H593.535V3.349H648.203V239.25H593.535V140.493H583.954V239.25H529.651V3.349Z" fill="white"/>
<path d="M657.435 3.349H731.629V239.25H657.435V3.349Z" fill="white"/>
<path d="M736.95 3.349H837.765L843.799 146.515H846.998L853.032 3.349H953.846L904.5 239.25H786.297L736.95 3.349Z" fill="white"/>
<path d="M959.183 3.349H1029.47V32.48H1002.13V110.997H1025.55V133.376H1002.13V210.467H1030.18V239.25H959.183V3.349Z" fill="white"/>
</svg>
