<svg width="59" height="7" viewBox="0 0 59 7" fill="none" xmlns="http://www.w3.org/2000/svg">
<g id="Group">
<path id="Vector" d="M0.535889 0.589233H4.42749V1.36267H1.40379V3.0762H4.36528V3.84964H1.40379V6.44978H0.535889V0.592378V0.589233Z" fill="white"/>
<path id="Vector_2" d="M8.04225 0.491821C9.77185 0.491821 10.9602 1.78403 10.9602 3.52271C10.9602 5.26138 9.76874 6.55045 8.04225 6.55045C6.31576 6.55045 5.12433 5.25823 5.12433 3.52271C5.12433 1.78718 6.31576 0.491821 8.04225 0.491821ZM8.04225 1.27469C6.80104 1.27469 6.01713 2.23049 6.01713 3.52271C6.01713 4.81492 6.79793 5.77072 8.04225 5.77072C9.28656 5.77072 10.0674 4.80549 10.0674 3.52271C10.0674 2.23993 9.2679 1.27469 8.04225 1.27469Z" fill="white"/>
<path id="Vector_3" d="M13.9652 4.1892H12.8795V6.44664H12.0116V0.589233H14.4536C15.5579 0.589233 16.3138 1.30923 16.3138 2.39079C16.3138 3.47235 15.6108 4.00684 14.8704 4.10431L16.3574 6.44978H15.3495L13.9683 4.19234L13.9652 4.1892ZM14.3385 1.36267H12.8795V3.41575H14.3385C14.9637 3.41575 15.4148 3.00388 15.4148 2.38764C15.4148 1.77141 14.9637 1.35953 14.3385 1.35953V1.36267Z" fill="white"/>
<path id="Vector_4" d="M21.036 1.36267H19.238V0.589233H23.6958V1.36267H21.907V6.44664H21.0391V1.36267H21.036Z" fill="white"/>
<path id="Vector_5" d="M28.6731 3.83077H25.4658V6.44664H24.5979V0.589233H25.4658V3.0479H28.6731V0.589233H29.541V6.44664H28.6731V3.83077Z" fill="white"/>
<path id="Vector_6" d="M30.8288 0.589233H34.7204V1.36267H31.6967V3.0762H34.6582V3.84964H31.6967V5.67634H34.7204V6.44978H30.8288V0.592378V0.589233Z" fill="white"/>
<path id="Vector_7" d="M41.7135 5.23312H38.8734L38.4036 6.44359H37.4486L39.7506 0.586182H40.8363L43.1383 6.44359H42.1832L41.7135 5.23312ZM39.1253 4.45339H41.4615L40.2888 1.35334L39.1253 4.45339Z" fill="white"/>
<path id="Vector_8" d="M45.7886 4.1892H44.7029V6.44664H43.835V0.589233H46.277C47.3813 0.589233 48.1372 1.30923 48.1372 2.39079C48.1372 3.47235 47.4342 4.00684 46.6938 4.10431L48.1808 6.44978H47.1729L45.7917 4.19234L45.7886 4.1892ZM46.1619 1.36267H44.7029V3.41575H46.1619C46.7872 3.41575 47.2382 3.00388 47.2382 2.38764C47.2382 1.77141 46.7872 1.35953 46.1619 1.35953V1.36267Z" fill="white"/>
<path id="Vector_9" d="M50.5295 1.36267H48.7314V0.589233H53.1892V1.36267H51.4005V6.44664H50.5326V1.36267H50.5295Z" fill="white"/>
<path id="Vector_10" d="M54.1971 4.94389C54.589 5.38406 55.2143 5.77078 56.0231 5.77078C56.9626 5.77078 57.2923 5.28659 57.2923 4.86529C57.2923 4.25219 56.6328 4.07612 55.8925 3.88119C54.9623 3.63595 53.886 3.36242 53.886 2.16767C53.886 1.20244 54.729 0.498169 55.936 0.498169C56.8319 0.498169 57.535 0.787423 58.0482 1.31563L57.5443 1.96645C57.1026 1.4917 56.4928 1.28104 55.8676 1.28104C55.2423 1.28104 54.7819 1.61432 54.7819 2.10793C54.7819 2.63614 55.4072 2.80278 56.1289 2.98513C57.0746 3.2398 58.1789 3.53849 58.1789 4.78668C58.1789 5.69846 57.5536 6.55051 55.9889 6.55051C54.9561 6.55051 54.2002 6.17322 53.7056 5.61986L54.2002 4.94389H54.1971Z" fill="white"/>
</g>
</svg>
