<svg width="96" height="7" viewBox="0 0 96 7" fill="none" xmlns="http://www.w3.org/2000/svg">
<g id="Group">
<path id="Vector" d="M4.32172 2.2481L3.12406 6.76927H2.19394L0.535889 0.911865H1.50956L2.70722 5.60911L3.97643 0.911865H4.67946L5.93934 5.60911L7.137 0.911865H8.11067L6.45884 6.76927H5.52871L4.32172 2.2481Z" fill="white"/>
<path id="Vector_2" d="M12.1143 5.5588H9.27411L8.80438 6.76927H7.84937L10.1514 0.911865H11.237L13.539 6.76927H12.584L12.1143 5.5588ZM9.52609 4.77907H11.8623L10.6895 1.67902L9.52609 4.77907Z" fill="white"/>
<path id="Vector_3" d="M14.2701 5.26957C14.662 5.70974 15.2873 6.09646 16.093 6.09646C17.0325 6.09646 17.3622 5.61228 17.3622 5.19097C17.3622 4.57788 16.7027 4.40181 15.9623 4.20687C15.0322 3.96164 13.9559 3.6881 13.9559 2.49336C13.9559 1.52813 14.7989 0.823853 16.0059 0.823853C16.9018 0.823853 17.6048 1.11311 18.1181 1.64131L17.6142 2.29214C17.1724 1.81738 16.5627 1.60673 15.9375 1.60673C15.3122 1.60673 14.8518 1.94 14.8518 2.43362C14.8518 2.96182 15.4771 3.12846 16.1988 3.31081C17.1444 3.56548 18.2488 3.86417 18.2488 5.11237C18.2488 6.02415 17.6235 6.87619 16.0588 6.87619C15.026 6.87619 14.2701 6.49891 13.7723 5.94555L14.267 5.26957H14.2701Z" fill="white"/>
<path id="Vector_4" d="M23.3318 4.15646H20.1246V6.77232H19.2567V0.914917H20.1246V3.37358H23.3318V0.914917H24.1997V6.77232H23.3318V4.15646Z" fill="white"/>
<path id="Vector_5" d="M25.4845 0.914917H26.3524V6.77232H25.4845V0.914917Z" fill="white"/>
<path id="Vector_6" d="M28.5175 2.2763V6.77232H27.6496V0.914917H28.5455L31.6999 5.30404V0.914917H32.5678V6.77232H31.7248L28.5175 2.2763Z" fill="white"/>
<path id="Vector_7" d="M36.6149 0.817505C37.7006 0.817505 38.4223 1.31741 38.9075 1.97767L38.2045 2.38954C37.8748 1.94308 37.293 1.60038 36.6149 1.60038C35.4079 1.60038 34.5027 2.53102 34.5027 3.84839C34.5027 5.16576 35.4048 6.10583 36.6149 6.10583C37.2588 6.10583 37.8063 5.78828 38.0832 5.52733V4.47406H36.2229V3.70062H38.9511V5.85117C38.3943 6.47369 37.5948 6.88871 36.6149 6.88871C34.9568 6.88871 33.6099 5.67824 33.6099 3.85154C33.6099 2.02483 34.9568 0.82065 36.6149 0.82065V0.817505Z" fill="white"/>
<path id="Vector_8" d="M41.4428 1.68836H39.6448V0.914917H44.1025V1.68836H42.3138V6.77232H41.4459V1.68836H41.4428Z" fill="white"/>
<path id="Vector_9" d="M47.456 0.817505C49.1856 0.817505 50.3739 2.10972 50.3739 3.84839C50.3739 5.58706 49.1825 6.87613 47.456 6.87613C45.7295 6.87613 44.5381 5.58392 44.5381 3.84839C44.5381 2.11286 45.7295 0.817505 47.456 0.817505ZM47.456 1.60038C46.2148 1.60038 45.4309 2.55618 45.4309 3.84839C45.4309 5.1406 46.2117 6.0964 47.456 6.0964C48.7003 6.0964 49.4811 5.13117 49.4811 3.84839C49.4811 2.56561 48.6817 1.60038 47.456 1.60038Z" fill="white"/>
<path id="Vector_10" d="M52.2933 2.2763V6.77232H51.4254V0.914917H52.3213L55.4756 5.30404V0.914917H56.3435V6.77232H55.5005L52.2933 2.2763Z" fill="white"/>
<path id="Vector_11" d="M59.868 0.914917H62.31C63.5015 0.914917 64.1609 1.74181 64.1609 2.71647C64.1609 3.69113 63.4921 4.51803 62.31 4.51803H60.7391V6.77547H59.8712V0.918062L59.868 0.914917ZM62.198 1.68836H60.7391V3.74144H62.198C62.8233 3.74144 63.2681 3.32957 63.2681 2.71333C63.2681 2.09709 62.8264 1.68521 62.198 1.68521V1.68836Z" fill="white"/>
<path id="Vector_12" d="M67.0105 4.51488H65.9248V6.77232H65.0569V0.914917H67.4989C68.6032 0.914917 69.3591 1.63491 69.3591 2.71647C69.3591 3.79803 68.6561 4.33253 67.9157 4.42999L69.4027 6.77547H68.3948L67.0136 4.51803L67.0105 4.51488ZM67.3838 1.68836H65.9248V3.74144H67.3838C68.009 3.74144 68.4601 3.32957 68.4601 2.71333C68.4601 2.09709 68.009 1.68521 67.3838 1.68521V1.68836Z" fill="white"/>
<path id="Vector_13" d="M73.1014 0.817505C74.831 0.817505 76.0193 2.10972 76.0193 3.84839C76.0193 5.58706 74.8279 6.87613 73.1014 6.87613C71.3749 6.87613 70.1835 5.58392 70.1835 3.84839C70.1835 2.11286 71.3749 0.817505 73.1014 0.817505ZM73.1014 1.60038C71.8602 1.60038 71.0763 2.55618 71.0763 3.84839C71.0763 5.1406 71.8571 6.0964 73.1014 6.0964C74.3457 6.0964 75.1265 5.13117 75.1265 3.84839C75.1265 2.56561 74.327 1.60038 73.1014 1.60038Z" fill="white"/>
<path id="Vector_14" d="M76.7566 5.56814C76.9992 5.84797 77.3227 6.09635 77.7987 6.09635C78.4675 6.09635 78.8844 5.64046 78.8844 4.95505V0.914917H79.7523V4.96134C79.7523 6.25984 78.9341 6.87608 77.8578 6.87608C77.2512 6.87608 76.7379 6.69058 76.3366 6.23469L76.7535 5.56814H76.7566Z" fill="white"/>
<path id="Vector_15" d="M81.0495 0.914917H84.9411V1.68836H81.9174V3.40188H84.8789V4.17532H81.9174V6.00203H84.9411V6.77547H81.0495V0.918062V0.914917Z" fill="white"/>
<path id="Vector_16" d="M85.7841 3.84839C85.7841 2.04684 87.1031 0.817505 88.7549 0.817505C89.8935 0.817505 90.6059 1.37086 91.0569 2.05627L90.3197 2.45242C90.0148 1.96195 89.4424 1.60038 88.7549 1.60038C87.5822 1.60038 86.68 2.53102 86.68 3.84839C86.68 5.16576 87.5822 6.0964 88.7549 6.0964C89.4424 6.0964 90.0148 5.73484 90.3197 5.24436L91.0569 5.64051C90.5965 6.32592 89.8935 6.87928 88.7549 6.87928C87.1031 6.87928 85.7841 5.64994 85.7841 3.85154V3.84839Z" fill="white"/>
<path id="Vector_17" d="M93.3402 1.68836H91.5422V0.914917H95.9999V1.68836H94.2112V6.77232H93.3433V1.68836H93.3402Z" fill="white"/>
</g>
</svg>
