<svg width="144" height="34" viewBox="0 0 144 34" fill="none" xmlns="http://www.w3.org/2000/svg">
<g id="Group">
<path id="Vector" d="M11.9859 29.8121H10.3092L10.2096 33.5504H0L5.27902 0.449585H17.0192L22.3448 33.5535H12.1352L11.9859 29.8152V29.8121ZM11.7899 24.2785L11.2486 11.6645H10.9531L10.5083 24.2785H11.7899Z" fill="white"/>
<path id="Vector_2" d="M55.9352 21.4363L58.007 33.5504H41.3362L40.8416 24.2282H39.8555V33.5504H23.0852V0.449585H39.8555C56.0845 0.449585 58.3523 1.99647 58.3523 12.614V12.8624C58.3523 16.9497 57.9074 19.641 55.9352 21.4363ZM40.3999 15.2047C41.19 15.2047 41.2865 15.0538 41.2865 13.8591V13.6107C41.2865 12.3153 41.1869 12.1644 40.3003 12.1644H39.9053V15.2047H40.3999Z" fill="white"/>
<path id="Vector_3" d="M58.9465 27.6175V6.33216C58.9465 1.44627 60.477 0 65.6533 0C70.8297 0 72.3136 1.39597 72.4598 6.13094V16.2517H66.3439V5.63418C66.3439 5.13427 66.148 4.93619 65.6533 4.93619C65.2085 4.93619 64.9627 5.13427 64.9627 5.63418V28.369C64.9627 28.8186 65.2085 29.0669 65.6533 29.0669C66.148 29.0669 66.3439 28.8186 66.3439 28.369V17.7514H72.4598V27.8722C72.3104 32.6072 70.7333 34.0031 65.6533 34.0031C60.5734 34.0031 58.9465 32.5569 58.9465 27.6207V27.6175Z" fill="white"/>
<path id="Vector_4" d="M73.5952 0.449585H81.142V14.5067H82.4734V0.449585H90.07V33.5535H82.4734V19.6945H81.142V33.5535H73.5952V0.449585Z" fill="white"/>
<path id="Vector_5" d="M91.3547 0.449585H101.664V33.5535H91.3547V0.449585Z" fill="white"/>
<path id="Vector_6" d="M102.404 0.449585H116.412L117.252 20.5402H117.697L118.537 0.449585H132.545L125.689 33.5535H109.264L102.404 0.449585Z" fill="white"/>
<path id="Vector_7" d="M133.282 0.449585H143.05V4.53688H139.252V15.5537H142.509V18.6946H139.252V29.5134H143.149V33.5504H133.285V0.449585H133.282Z" fill="white"/>
</g>
</svg>
