<svg width="32" height="32" viewBox="0 0 32 32" fill="none" xmlns="http://www.w3.org/2000/svg">
<g id="carbon:next-outline">
<path id="Vector" d="M16 8L14.57 9.393L20.15 15H8V17H20.15L14.57 22.573L16 24L24 16L16 8Z" fill="black"/>
<path id="Vector_2" d="M16 30C13.2311 30 10.5243 29.1789 8.22201 27.6406C5.91973 26.1022 4.12531 23.9157 3.06569 21.3576C2.00606 18.7994 1.72881 15.9845 2.269 13.2687C2.8092 10.553 4.14257 8.05845 6.1005 6.10051C8.05844 4.14258 10.553 2.80921 13.2687 2.26901C15.9845 1.72882 18.7994 2.00607 21.3576 3.06569C23.9157 4.12532 26.1022 5.91973 27.6406 8.22202C29.1789 10.5243 30 13.2311 30 16C29.9958 19.7117 28.5194 23.2702 25.8948 25.8948C23.2702 28.5194 19.7117 29.9958 16 30ZM16 4.00001C13.6266 4.00001 11.3065 4.70379 9.33316 6.02237C7.35977 7.34095 5.8217 9.21509 4.91344 11.4078C4.00519 13.6005 3.76755 16.0133 4.23058 18.3411C4.6936 20.6689 5.83649 22.8071 7.51472 24.4853C9.19295 26.1635 11.3311 27.3064 13.6589 27.7694C15.9867 28.2325 18.3995 27.9948 20.5922 27.0866C22.7849 26.1783 24.6591 24.6402 25.9776 22.6668C27.2962 20.6935 28 18.3734 28 16C27.9963 12.8185 26.7308 9.76845 24.4812 7.51882C22.2316 5.26918 19.1815 4.00371 16 4.00001Z" fill="black"/>
</g>
</svg>
