<svg width="32" height="32" viewBox="0 0 32 32" fill="none" xmlns="http://www.w3.org/2000/svg">
<g id="carbon:next-outline">
<path id="Vector" d="M16 24L14.57 22.607L20.15 17L8 17L8 15L20.15 15L14.57 9.427L16 8L24 16L16 24Z" fill="#C8C8C8"/>
<path id="Vector_2" d="M16 1.99999C13.2311 1.99999 10.5243 2.82108 8.22202 4.35942C5.91973 5.89776 4.12532 8.08426 3.06569 10.6424C2.00606 13.2006 1.72882 16.0155 2.26901 18.7313C2.8092 21.447 4.14258 23.9416 6.10051 25.8995C8.05845 27.8574 10.553 29.1908 13.2687 29.731C15.9845 30.2712 18.7994 29.9939 21.3576 28.9343C23.9157 27.8747 26.1022 26.0803 27.6406 23.778C29.1789 21.4757 30 18.7689 30 16C29.9958 12.2883 28.5194 8.72977 25.8948 6.10517C23.2702 3.48058 19.7117 2.00423 16 1.99999ZM16 28C13.6266 28 11.3066 27.2962 9.33316 25.9776C7.35977 24.6591 5.8217 22.7849 4.91345 20.5922C4.0052 18.3995 3.76756 15.9867 4.23058 13.6589C4.6936 11.3311 5.83649 9.19294 7.51472 7.51471C9.19295 5.83648 11.3311 4.69359 13.6589 4.23057C15.9867 3.76755 18.3995 4.00519 20.5922 4.91344C22.7849 5.82169 24.6591 7.35976 25.9776 9.33315C27.2962 11.3065 28 13.6266 28 16C27.9963 19.1815 26.7308 22.2315 24.4812 24.4812C22.2316 26.7308 19.1815 27.9963 16 28Z" fill="#C8C8C8"/>
</g>
</svg>
