<svg width="32" height="32" viewBox="0 0 32 32" fill="none" xmlns="http://www.w3.org/2000/svg">
<g id="carbon:next-outline">
<path id="Vector" d="M16 24L17.43 22.607L11.85 17L24 17L24 15L11.85 15L17.43 9.427L16 8L8 16L16 24Z" fill="#231F20"/>
<path id="Vector_2" d="M16 1.99999C18.7689 1.99999 21.4757 2.82108 23.778 4.35942C26.0803 5.89776 27.8747 8.08426 28.9343 10.6424C29.9939 13.2006 30.2712 16.0155 29.731 18.7313C29.1908 21.447 27.8574 23.9416 25.8995 25.8995C23.9416 27.8574 21.447 29.1908 18.7313 29.731C16.0155 30.2712 13.2006 29.9939 10.6424 28.9343C8.08426 27.8747 5.89776 26.0803 4.35942 23.778C2.82108 21.4757 2 18.7689 2 16C2.00423 12.2883 3.48059 8.72977 6.10518 6.10517C8.72977 3.48058 12.2883 2.00423 16 1.99999ZM16 28C18.3734 28 20.6934 27.2962 22.6668 25.9776C24.6402 24.6591 26.1783 22.7849 27.0865 20.5922C27.9948 18.3995 28.2324 15.9867 27.7694 13.6589C27.3064 11.3311 26.1635 9.19294 24.4853 7.51471C22.807 5.83648 20.6689 4.69359 18.3411 4.23057C16.0133 3.76755 13.6005 4.00519 11.4078 4.91344C9.21508 5.82169 7.34094 7.35976 6.02236 9.33315C4.70378 11.3065 4 13.6266 4 16C4.0037 19.1815 5.26917 22.2315 7.51881 24.4812C9.76844 26.7308 12.8185 27.9963 16 28Z" fill="#231F20"/>
</g>
</svg>
